<svg width="14" height="18" viewBox="0 0 14 18" fill="none" xmlns="http://www.w3.org/2000/svg">
<path d="M7 0C5.14412 0.00208435 3.36486 0.740252 2.05255 2.05255C0.740251 3.36486 0.00208434 5.14413 0 7C0 9.84813 2.06763 12.2133 4.25775 14.7166C4.95075 15.5094 5.66825 16.3293 6.307 17.1588C6.38874 17.2648 6.49372 17.3507 6.61387 17.4097C6.73401 17.4688 6.86611 17.4995 7 17.4995C7.13389 17.4995 7.26599 17.4688 7.38613 17.4097C7.50628 17.3507 7.61126 17.2648 7.693 17.1588C8.33175 16.3293 9.04925 15.5094 9.74225 14.7166C11.9324 12.2133 14 9.84813 14 7C13.9979 5.14413 13.2597 3.36486 11.9474 2.05255C10.6351 0.740252 8.85588 0.00208435 7 0ZM7 9.625C6.48082 9.625 5.97331 9.47105 5.54163 9.18261C5.10995 8.89417 4.7735 8.4842 4.57482 8.00455C4.37614 7.52489 4.32415 6.99709 4.42544 6.48789C4.52672 5.97869 4.77673 5.51096 5.14384 5.14385C5.51096 4.77673 5.97869 4.52673 6.48789 4.42544C6.99709 4.32415 7.52489 4.37614 8.00454 4.57482C8.4842 4.7735 8.89417 5.10995 9.18261 5.54163C9.47105 5.97331 9.625 6.48083 9.625 7C9.625 7.69619 9.34844 8.36387 8.85616 8.85616C8.36387 9.34844 7.69619 9.625 7 9.625Z" fill="#212121"/>
</svg>
