<svg width="20" height="20" viewBox="0 0 20 20" fill="none" xmlns="http://www.w3.org/2000/svg">
<path d="M3.01999 12.5C4.17393 13.6556 5.71063 14.3493 7.34057 14.4504C8.97051 14.5516 10.5812 14.0532 11.8692 13.0492L16.3008 17.4808C16.458 17.6326 16.6685 17.7166 16.887 17.7147C17.1055 17.7128 17.3145 17.6252 17.469 17.4707C17.6235 17.3162 17.7111 17.1072 17.713 16.8887C17.7149 16.6702 17.631 16.4597 17.4792 16.3025L13.0475 11.8708C14.0961 10.5251 14.5918 8.83012 14.4336 7.13147C14.2755 5.43282 13.4753 3.85849 12.1962 2.72955C10.9172 1.60061 9.25568 1.00209 7.55054 1.05606C5.8454 1.11003 4.22506 1.81243 3.01999 3.02C2.39732 3.64235 1.90337 4.38129 1.56637 5.19459C1.22936 6.0079 1.05591 6.87963 1.05591 7.76C1.05591 8.64036 1.22936 9.5121 1.56637 10.3254C1.90337 11.1387 2.39732 11.8776 3.01999 12.5ZM4.19832 4.2C5.02213 3.3762 6.10609 2.86353 7.26551 2.74933C8.42493 2.63512 9.58808 2.92645 10.5568 3.57368C11.5255 4.22091 12.2398 5.18399 12.5781 6.29884C12.9163 7.41369 12.8576 8.61133 12.4118 9.68771C11.966 10.7641 11.1608 11.6526 10.1334 12.2019C9.10601 12.7512 7.91993 12.9272 6.77725 12.7001C5.63458 12.4729 4.60602 11.8566 3.86682 10.9561C3.12761 10.0556 2.7235 8.92669 2.72332 7.76166C2.72103 7.09964 2.85024 6.44376 3.10344 5.83206C3.35665 5.22037 3.7288 4.66505 4.19832 4.19833V4.2Z" fill="#414141"/>
</svg>
