<svg id="Layer_1" data-name="Layer 1" xmlns="http://www.w3.org/2000/svg" viewBox="0 0 242.72 84.15"><path d="M11.6,85.26h-2l-.32-.79H7l-.32.79h-2l3.41-6.93h0Zm-4-2.11H8.79l-.62-1.6Z" transform="translate(-4.74 -1.23)" style="fill:#818282"/><path d="M20.51,80.53h1.25V82H20.51v1.38a.48.48,0,0,0,.53.49,1.15,1.15,0,0,0,.56-.13L22,85a2.09,2.09,0,0,1-1.14.32,1.86,1.86,0,0,1-2.06-2V82H18V80.53h.8V79h1.7Z" transform="translate(-4.74 -1.23)" style="fill:#818282"/><path d="M32.28,81l.09-.49h1.52v4.73H32.37l-.09-.48a1.51,1.51,0,0,1-1.29.58,2.5,2.5,0,0,1,0-4.92A1.49,1.49,0,0,1,32.28,81ZM30.66,82.9c0,.63.31,1,.78,1a.83.83,0,0,0,.75-.44V82.35a.85.85,0,0,0-.75-.44C31,81.91,30.66,82.27,30.66,82.9Z" transform="translate(-4.74 -1.23)" style="fill:#818282"/><path d="M43.71,80.53H45V82H43.71v1.38a.48.48,0,0,0,.53.49,1.15,1.15,0,0,0,.56-.13L45.21,85a2.09,2.09,0,0,1-1.14.32,1.86,1.86,0,0,1-2.06-2V82h-.8V80.53H42V79h1.7Z" transform="translate(-4.74 -1.23)" style="fill:#818282"/><path d="M57,85.26H55.44l-.08-.47a1.46,1.46,0,0,1-1.27.57c-1.14,0-1.72-.83-1.72-2.15V80.53h1.71v2.59c0,.38.17.64.52.64a.74.74,0,0,0,.66-.41V80.53H57Zm-2.49-6.07a.76.76,0,0,1-1.52,0,.76.76,0,0,1,1.52,0Zm1.92,0a.76.76,0,0,1-1.52,0,.76.76,0,0,1,1.52,0Z" transform="translate(-4.74 -1.23)" style="fill:#818282"/><path d="M67.7,82.13h-.14a1.37,1.37,0,0,0-1.1.5v2.63H64.75V80.53h1.51l.11.61a1.51,1.51,0,0,1,1.33-.7Z" transform="translate(-4.74 -1.23)" style="fill:#818282"/><path d="M76.78,82.52l1.24-2h2l-1.44,1.86,1.51,2.87H78.21l-.74-1.38-1.06,1.38H75.07v-7h1.71Z" transform="translate(-4.74 -1.23)" style="fill:#818282"/><path d="M99.8,81.72l2.5,3.54h-2.12l-1.37-2-1.33,2H96.15V78.45h1.76v3.27l1.87-3.27h2.08Z" transform="translate(-4.74 -1.23)" style="fill:#818282"/><path d="M113.71,85.26h-1.52l-.08-.47a1.46,1.46,0,0,1-1.27.57c-1.14,0-1.72-.83-1.72-2.15V80.53h1.71v2.59c0,.38.16.64.52.64a.75.75,0,0,0,.66-.41V80.53h1.7Zm-2.49-6.07a.76.76,0,1,1-1.52,0,.76.76,0,1,1,1.52,0Zm1.92,0a.76.76,0,1,1-1.52,0,.76.76,0,1,1,1.52,0Z" transform="translate(-4.74 -1.23)" style="fill:#818282"/><path d="M123.21,85.26H121.5v-7h1.71Z" transform="translate(-4.74 -1.23)" style="fill:#818282"/><path d="M133,80.53h1.25V82H133v1.38a.47.47,0,0,0,.53.49,1.11,1.11,0,0,0,.55-.13l.41,1.34a2.08,2.08,0,0,1-1.13.32,1.87,1.87,0,0,1-2.07-2V82h-.8V80.53h.8V79H133Z" transform="translate(-4.74 -1.23)" style="fill:#818282"/><path d="M146.28,85.26h-1.52l-.09-.47a1.46,1.46,0,0,1-1.27.57c-1.14,0-1.71-.83-1.71-2.15V80.53h1.7v2.59c0,.38.17.64.52.64a.73.73,0,0,0,.66-.41V80.53h1.71Zm-2.5-6.07a.76.76,0,1,1-.76-.76A.73.73,0,0,1,143.78,79.19Zm1.92,0a.76.76,0,1,1-.76-.76A.73.73,0,0,1,145.7,79.19Z" transform="translate(-4.74 -1.23)" style="fill:#818282"/><path d="M157,82.13h-.14a1.39,1.39,0,0,0-1.11.5v2.63h-1.7V80.53h1.51l.1.61a1.51,1.51,0,0,1,1.34-.7Z" transform="translate(-4.74 -1.23)" style="fill:#818282"/><path d="M180.26,85.26H178.5V83.07l-1.74,2.31h-.08l-1.75-2.32v2.2h-1.76V78.33h0l3.51,4.43,3.5-4.43h0Z" transform="translate(-4.74 -1.23)" style="fill:#818282"/><path d="M192.5,82.82v.49h-3c0,.41.29.66.81.66a1.08,1.08,0,0,0,.86-.39l1.16.93a2.55,2.55,0,0,1-2.05.85,2.46,2.46,0,1,1,0-4.92A2.15,2.15,0,0,1,192.5,82.82Zm-3-.47h1.31a.65.65,0,0,0-.64-.7A.68.68,0,0,0,189.51,82.35Z" transform="translate(-4.74 -1.23)" style="fill:#818282"/><path d="M203,82.13h-.14a1.37,1.37,0,0,0-1.1.5v2.63H200V80.53h1.51l.11.61a1.51,1.51,0,0,1,1.33-.7Z" transform="translate(-4.74 -1.23)" style="fill:#818282"/><path d="M212.05,82.52l1.24-2h2l-1.44,1.86,1.51,2.87h-1.92l-.74-1.38-1.06,1.38h-1.34v-7h1.71Z" transform="translate(-4.74 -1.23)" style="fill:#818282"/><path d="M226.84,82.82v.49h-3c0,.41.3.66.82.66a1.08,1.08,0,0,0,.86-.39l1.16.93a2.55,2.55,0,0,1-2.06.85,2.46,2.46,0,1,1,0-4.92A2.16,2.16,0,0,1,226.84,82.82Zm-3-.47h1.32a.65.65,0,0,0-.64-.7A.68.68,0,0,0,223.84,82.35Z" transform="translate(-4.74 -1.23)" style="fill:#818282"/><path d="M238.21,80.57l-1.68,3.26h1.66v1.43H234v0L235.68,82h-1.57V80.53h4.1Z" transform="translate(-4.74 -1.23)" style="fill:#818282"/><path d="M247.46,79.06a1,1,0,0,1-1.91,0,1,1,0,1,1,1.91,0Zm-.1,6.2h-1.71V80.53h1.71Z" transform="translate(-4.74 -1.23)" style="fill:#818282"/><path d="M239.59,25.1,223.84,43.66,208.26,64.29h-.66L191.94,43.58V63.22H176.19v-62h.33l31.41,39.61L239.26,1.23h.33Z" transform="translate(-4.74 -1.23)"/><polygon points="34.48 0 34.14 0 26.32 15.9 48.07 61.99 64.97 61.99 34.48 0"/><path d="M128,31.56l22.29,31.66h-18.9L119.1,45.57,107.16,63.22H95.31V31.56h15.75L127.8,2.31h18.56Z" transform="translate(-4.74 -1.23)"/><path d="M103.19,10.18a7.87,7.87,0,0,0,7.87-7.87H95.31A7.87,7.87,0,0,0,103.19,10.18Z" transform="translate(-4.74 -1.23)" style="fill:#b73027"/><path d="M239.59,55.83a7.87,7.87,0,0,0-7.87,7.87h15.74A7.87,7.87,0,0,0,239.59,55.83Z" transform="translate(-4.74 -1.23)" style="fill:#b73027"/><path d="M12.61,55.83A7.87,7.87,0,0,0,4.74,63.7H20.48A7.87,7.87,0,0,0,12.61,55.83Z" transform="translate(-4.74 -1.23)" style="fill:#b73027"/></svg>