<svg xmlns="http://www.w3.org/2000/svg" xmlns:xlink="http://www.w3.org/1999/xlink" x="0px" y="0px" width="64px" height="64px" viewBox="0 0 64 64"><g stroke-width="3" transform="translate(0.5, 0.5)"><circle cx="33" cy="8" r="6" fill="none" stroke="#444444" stroke-linecap="square" stroke-miterlimit="10" stroke-width="3" stroke-linejoin="miter"></circle>
  <path d="M55.472,14a4.529,4.529,0,0,0-.791.128L38.484,19H8.614a2.6,2.6,0,0,0-2.629,2.242A2.5,2.5,0,0,0,8.472,24c.009,0,.018,0,.028,0l15.479,1,.012,4.013a4,4,0,0,1-2.853,3.844L13.972,35a15.919,15.919,0,0,0,2.766,8.991l-5.887,5.888a3,3,0,1,0,4.242,4.242l5.887-5.888A15.923,15.923,0,0,0,29.972,51v8a3,3,0,0,0,6,0V49.826a16.021,16.021,0,0,0,5.313-3.512L37.972,32l1.449-6.972,16.837-6.167A2.493,2.493,0,0,0,55.472,14Z" fill="none" stroke="#444444" stroke-linecap="square" stroke-miterlimit="10" stroke-width="3" stroke-linejoin="miter"></path></g></svg>