<svg xmlns="http://www.w3.org/2000/svg" xmlns:xlink="http://www.w3.org/1999/xlink" viewBox="0 0 493.41 409.76"><defs><style>.cls-1{fill:none;}.cls-2{clip-path:url(#clip-path);}.cls-3{fill:#12100b;}.cls-4{fill:#fff;}</style><clipPath id="clip-path" transform="translate(-0.41 -0.89)"><rect class="cls-1" width="496.14" height="410.91"/></clipPath></defs><g id="Layer_2" data-name="Layer 2"><g id="Layer_1-2" data-name="Layer 1"><g class="cls-2"><path class="cls-3" d="M103.32,5.8,1.63,187.68a9.57,9.57,0,0,0-.09,9.2l111.69,208.7a9.57,9.57,0,0,0,9.17,5l362.54-27.2a9.59,9.59,0,0,0,7.45-14.58L410.22,235a9.58,9.58,0,0,1-.84-8.29l41.39-113.84a9.59,9.59,0,0,0-6.26-12.46L114.44,1.29A9.58,9.58,0,0,0,103.32,5.8" transform="translate(-0.41 -0.89)"/><path class="cls-4" d="M120.78,166v-.19c0-20.42,15.91-35.65,36.32-35.65,15.05,0,25.2,7.32,31,17.78l-18.85,11c-2.54-4.88-6.15-8.3-12.4-8.3-7.72,0-12.8,6.74-12.8,14.94v.2c0,8.88,5.28,15.13,12.8,15.13,6.44,0,10.05-3.51,12.89-8.58L188.55,183c-5.76,10.16-15.33,18.46-32.32,18.46-18.95,0-35.45-14.27-35.45-35.46" transform="translate(-0.41 -0.89)"/><path class="cls-4" d="M187.32,189.69l12.21-14.56a39.16,39.16,0,0,0,23.93,8c4.1,0,5.86-1.08,5.86-2.93V180c0-2-2.15-3-9.47-4.5C204.51,172.4,191,168,191,153.55v-.19c0-13,10.15-23.06,29-23.06,13.19,0,23,3.13,30.86,9.38l-11.13,15.43a35.9,35.9,0,0,0-20.51-6.74c-3.41,0-5,1.18-5,2.84v.19c0,1.86,1.86,3,9.08,4.4,17.49,3.22,29.2,8.3,29.2,22.07v.19c0,14.36-11.81,23.15-30.17,23.15-13.87,0-26.37-3.9-35.07-11.52" transform="translate(-0.41 -0.89)"/><path class="cls-4" d="M256.31,166v-.19c0-19.83,16.3-35.65,37.4-35.65s37.22,15.62,37.22,35.45v.2c0,19.83-16.32,35.65-37.42,35.65s-37.2-15.63-37.2-35.46m51.56,0v-.19c0-8.11-5.56-15.43-14.36-15.43s-14.16,7.22-14.16,15.23v.2c0,8.1,5.57,15.43,14.36,15.43S307.87,174,307.87,166" transform="translate(-0.41 -0.89)"/></g><path class="cls-4" d="M147.78,249.14l-3-7.39H130.82l-3,7.39h-7.39l14.12-33.2h6.69l14.13,33.2Zm-10-24.48-4.38,10.69h8.76Z" transform="translate(-0.41 -0.89)"/><path class="cls-4" d="M189.55,239.16a15.37,15.37,0,0,1-3.61,5.23,16.93,16.93,0,0,1-5.55,3.48,19.15,19.15,0,0,1-7.09,1.27H160.44v-33H173.3a19.56,19.56,0,0,1,7.09,1.25,16.56,16.56,0,0,1,5.55,3.46,15.45,15.45,0,0,1,3.61,5.2,16.57,16.57,0,0,1,1.27,6.48v.09A16.67,16.67,0,0,1,189.55,239.16Zm-6.31-6.5a10.86,10.86,0,0,0-.73-4,9.43,9.43,0,0,0-2-3.16,8.9,8.9,0,0,0-3.13-2,10.77,10.77,0,0,0-4-.73h-5.6V242.6h5.6a11.18,11.18,0,0,0,4-.71,8.59,8.59,0,0,0,3.13-2,9.52,9.52,0,0,0,2-3.11,10.63,10.63,0,0,0,.73-4Z" transform="translate(-0.41 -0.89)"/><path class="cls-4" d="M219.5,249.14l-3-7.39H202.54l-3,7.39h-7.39l14.12-33.2H213l14.13,33.2Zm-10-24.48-4.38,10.69h8.76Z" transform="translate(-0.41 -0.89)"/><path class="cls-4" d="M151.73,301.37l-4.19-9.23H128.09l-4.19,9.23h-2.54l15.35-33.2h2.35l15.36,33.2Zm-13.89-30.52-8.71,19.08h17.38Z" transform="translate(-0.41 -0.89)"/><path class="cls-4" d="M187,301.37l-23.22-29.29v29.29h-2.35v-33h2.3l22.75,28.67V268.41h2.35v33Z" transform="translate(-0.41 -0.89)"/><path class="cls-4" d="M222.79,301.37,209.23,284.7,201,293v8.38h-2.45v-33H201v21.66l21-21.66h3.34L211,283l15,18.41Z" transform="translate(-0.41 -0.89)"/><path class="cls-4" d="M259.81,301.37l-4.19-9.23H236.17L232,301.37h-2.55l15.36-33.2h2.35l15.35,33.2Zm-13.89-30.52-8.72,19.08h17.38Z" transform="translate(-0.41 -0.89)"/><path class="cls-4" d="M293.2,301.37l-10.51-13.66H271.91v13.66h-2.45v-33h13.85a16,16,0,0,1,4.85.68,11,11,0,0,1,3.69,1.93,8.74,8.74,0,0,1,2.38,3,8.37,8.37,0,0,1,.85,3.79v.09a8.92,8.92,0,0,1-.73,3.7,8.33,8.33,0,0,1-2,2.8,10.3,10.3,0,0,1-3.06,1.91,15.71,15.71,0,0,1-3.83,1l10.87,14.08Zm-.57-23.52a6.34,6.34,0,0,0-2.47-5.29c-1.65-1.3-4-1.94-7-1.94H271.91V285.5H283a13.4,13.4,0,0,0,3.84-.52,9.28,9.28,0,0,0,3-1.49,7,7,0,0,0,2-2.36,6.73,6.73,0,0,0,.73-3.19Z" transform="translate(-0.41 -0.89)"/><path class="cls-4" d="M330.77,301.37l-4.19-9.23H307.14l-4.2,9.23H300.4l15.35-33.2h2.36l15.35,33.2Zm-13.89-30.52-8.71,19.08h17.38Z" transform="translate(-0.41 -0.89)"/></g></g></svg>