<?xml version="1.0" encoding="utf-8"?>
<!-- Generator: Adobe Illustrator 27.0.1, SVG Export Plug-In . SVG Version: 6.00 Build 0)  -->
<svg version="1.1" id="Layer_1" xmlns="http://www.w3.org/2000/svg" xmlns:xlink="http://www.w3.org/1999/xlink" x="0px" y="0px"
	 viewBox="0 0 100 100" style="enable-background:new 0 0 100 100;" xml:space="preserve">
<style type="text/css">
	.st0{fill-rule:evenodd;clip-rule:evenodd;fill:#FFFFFF;}
	.st1{fill-rule:evenodd;clip-rule:evenodd;fill:#545554;}
</style>
<g>
	<polygon class="st0" points="0.18,-0.05 100.24,-0.05 100.24,100 0.18,100 0.18,-0.05 	"/>
	<polygon class="st1" points="56.68,44.25 46.51,44.25 46.51,27.72 95.82,27.72 95.82,44.25 87.25,44.25 87.25,38.67 81.54,38.67 
		81.54,58.71 86.29,58.71 86.29,67.26 57.7,67.26 57.7,58.71 62.14,58.71 62.14,38.67 56.68,38.67 56.68,44.25 	"/>
	<path class="st1" d="M9.35,38.67H4.6V27.72h40.88v17.42h11.19V58.8c0,0,0.02,8.45-9.65,8.45H4.6v-8.55h4.75V38.67L9.35,38.67z
		 M28.82,38.67v20.04h9.46V38.67H28.82L28.82,38.67z"/>
	<polygon class="st1" points="95.82,70.98 94.62,70.98 4.6,70.98 4.6,69.78 94.62,69.78 94.62,46.41 95.82,46.41 95.82,69.78 
		95.82,70.98 	"/>
	<path class="st1" d="M5.89,25.64v-3.5H4.65v-0.49h3.06v0.49H6.46v3.5H5.89L5.89,25.64z M7.46,25.64h0.56v-0.59H7.46V25.64
		L7.46,25.64z M11.72,24.17h0.51c0,0.22-0.05,0.44-0.12,0.64c-0.1,0.2-0.22,0.37-0.37,0.51c-0.32,0.29-0.71,0.44-1.2,0.44
		c-0.56,0-1-0.2-1.32-0.56c-0.32-0.39-0.47-0.93-0.47-1.59c0-0.64,0.15-1.13,0.49-1.49s0.78-0.56,1.35-0.56
		c0.47,0,0.83,0.12,1.1,0.34c0.29,0.24,0.47,0.56,0.51,0.96h-0.54c-0.05-0.24-0.15-0.47-0.34-0.59c-0.2-0.15-0.44-0.22-0.73-0.22
		c-0.42,0-0.73,0.15-0.96,0.42c-0.22,0.29-0.34,0.69-0.34,1.2c0,0.49,0.12,0.88,0.37,1.18c0.22,0.29,0.54,0.44,0.91,0.44
		c0.34,0,0.59-0.1,0.81-0.29c0.1-0.1,0.2-0.22,0.24-0.37C11.7,24.48,11.72,24.34,11.72,24.17L11.72,24.17z M12.95,25.64v-0.59h0.54
		v0.59H12.95L12.95,25.64z M15.94,25.64v-3.99h0.54v1.94l1.91-1.94h0.71l-1.62,1.62l1.67,2.38h-0.66l-1.4-1.98l-0.61,0.59v1.4H15.94
		L15.94,25.64z M19.44,24.14v-2.5H20v2.5c0,0.37,0.07,0.64,0.24,0.83c0.15,0.17,0.42,0.27,0.76,0.27c0.34,0,0.59-0.1,0.76-0.29
		c0.17-0.17,0.27-0.44,0.27-0.81v-2.5h0.54v2.5c0,0.51-0.15,0.93-0.42,1.2c-0.27,0.27-0.69,0.42-1.22,0.42
		c-0.49,0-0.86-0.15-1.1-0.42C19.56,25.07,19.44,24.68,19.44,24.14L19.44,24.14z M21.2,21.15v-0.59h0.51v0.59H21.2L21.2,21.15z
		 M20.32,21.15v-0.59h0.49v0.59H20.32L20.32,21.15z M23.41,25.64v-3.99h0.54v3.5h2.01v0.49H23.41L23.41,25.64z M26.81,25.64h0.54
		v-3.5h1.27v-0.49h-3.09v0.49h1.27V25.64L26.81,25.64z M29.07,24.14v-2.5h0.56v2.5c0,0.37,0.07,0.64,0.24,0.83
		c0.15,0.17,0.42,0.27,0.76,0.27c0.34,0,0.59-0.1,0.76-0.29c0.17-0.17,0.27-0.44,0.27-0.81v-2.5h0.54v2.5c0,0.51-0.15,0.93-0.42,1.2
		c-0.27,0.27-0.69,0.42-1.2,0.42c-0.51,0-0.88-0.15-1.13-0.42C29.22,25.07,29.07,24.68,29.07,24.14L29.07,24.14z M30.86,21.15v-0.59
		h0.49v0.59H30.86L30.86,21.15z M29.95,21.15v-0.59h0.49v0.59H29.95L29.95,21.15z M33.58,22.13v1.35h0.93
		c0.32,0,0.56-0.05,0.71-0.17c0.12-0.1,0.2-0.29,0.2-0.54c0-0.22-0.07-0.39-0.2-0.49c-0.12-0.1-0.37-0.15-0.71-0.15H33.58
		L33.58,22.13z M33.04,21.64h1.54c0.24,0,0.44,0.02,0.56,0.05c0.12,0.02,0.22,0.05,0.32,0.1c0.17,0.1,0.29,0.22,0.39,0.39
		c0.07,0.17,0.12,0.37,0.12,0.59c0,0.2-0.05,0.39-0.15,0.54c-0.07,0.15-0.22,0.27-0.42,0.37c0.17,0.05,0.27,0.12,0.34,0.22
		c0.02,0.05,0.07,0.12,0.1,0.22c0.02,0.07,0.02,0.17,0.02,0.29l0.05,0.66c0,0.07,0,0.12,0.02,0.17c0,0.07,0.02,0.1,0.02,0.15
		c0.02,0.07,0.07,0.12,0.12,0.15v0.1h-0.61c-0.02-0.02-0.05-0.1-0.07-0.17c-0.02-0.12-0.05-0.22-0.05-0.34V25.1l-0.02-0.51
		c0-0.12,0-0.24-0.05-0.32c-0.02-0.1-0.07-0.17-0.12-0.22c-0.1-0.07-0.34-0.1-0.71-0.1h-0.88v1.69h-0.54V21.64L33.04,21.64z
		 M39.23,25.64l-1.42-3.99h0.56L39.53,25l1.13-3.36h0.56l-1.42,3.99H39.23L39.23,25.64z M41.64,25.64v-3.99h2.84v0.51h-2.3v1.18
		h2.13v0.47h-2.13v1.35h2.35v0.49H41.64L41.64,25.64z M47.59,25.64v-3.5h-1.25v-0.49h3.06v0.49h-1.27v3.5H47.59L47.59,25.64z
		 M49.87,24.14v-2.5h0.54v2.5c0,0.37,0.07,0.64,0.24,0.83c0.17,0.17,0.42,0.27,0.76,0.27c0.34,0,0.61-0.1,0.78-0.29
		c0.17-0.17,0.24-0.44,0.24-0.81v-2.5h0.51v2.5c0,0.51-0.12,0.93-0.39,1.2c-0.27,0.27-0.66,0.42-1.2,0.42
		c-0.49,0-0.88-0.15-1.13-0.42C49.99,25.07,49.87,24.68,49.87,24.14L49.87,24.14z M54.32,22.13v1.35h0.93
		c0.34,0,0.56-0.05,0.71-0.17c0.15-0.1,0.2-0.29,0.2-0.54c0-0.22-0.05-0.39-0.2-0.49c-0.12-0.1-0.37-0.15-0.71-0.15H54.32
		L54.32,22.13z M53.79,21.64h1.57c0.24,0,0.42,0.02,0.54,0.05c0.12,0.02,0.24,0.05,0.32,0.1c0.17,0.1,0.29,0.22,0.39,0.39
		c0.1,0.17,0.12,0.37,0.12,0.59c0,0.2-0.05,0.39-0.12,0.54c-0.1,0.15-0.24,0.27-0.42,0.37c0.15,0.05,0.27,0.12,0.32,0.22
		c0.05,0.05,0.07,0.12,0.1,0.22c0.02,0.07,0.02,0.17,0.02,0.29l0.05,0.66c0,0.07,0.02,0.12,0.02,0.17c0,0.07,0.02,0.1,0.05,0.15
		c0.02,0.07,0.05,0.12,0.12,0.15v0.1h-0.64c-0.02-0.02-0.05-0.1-0.07-0.17c-0.02-0.12-0.02-0.22-0.02-0.34V25.1l-0.02-0.51
		c0-0.12-0.02-0.24-0.05-0.32c-0.05-0.1-0.07-0.17-0.12-0.22c-0.1-0.07-0.34-0.1-0.73-0.1h-0.88v1.69h-0.54V21.64L53.79,21.64z
		 M57.48,25.64v-3.99h0.56v3.99H57.48L57.48,25.64z M57.51,21.15v-0.59h0.51v0.59H57.51L57.51,21.15z M58.64,25.64V25.2l2.45-3.06
		h-2.28v-0.49h2.89v0.51l-2.38,3.01h2.38v0.47H58.64L58.64,25.64z M62.73,22.26v3.38h-0.49v-3.99H63l1,3.06l0.05,0.22l0.05,0.12
		l0.05-0.2c0-0.02,0-0.05,0-0.07c0,0,0.02-0.02,0.02-0.07l1.03-3.06h0.78v3.99h-0.51v-3.38c-0.02,0.05-0.02,0.1-0.05,0.17
		l-0.05,0.17l-1.03,3.04l-0.51,0.02l-1-3.06l-0.05-0.17L62.73,22.26L62.73,22.26z M68.36,25.64v-3.99h1.62
		c0.42,0,0.71,0.1,0.93,0.24c0.2,0.17,0.32,0.42,0.32,0.73c0,0.22-0.05,0.39-0.15,0.54c-0.1,0.15-0.24,0.24-0.44,0.32
		c0.24,0.05,0.44,0.17,0.56,0.34c0.15,0.17,0.2,0.37,0.2,0.64c0,0.37-0.12,0.66-0.37,0.86c-0.22,0.22-0.56,0.32-0.98,0.32H68.36
		L68.36,25.64z M68.9,23.33h0.96c0.29,0,0.49-0.05,0.61-0.15c0.15-0.1,0.2-0.27,0.2-0.49c0-0.2-0.05-0.34-0.17-0.44
		c-0.12-0.1-0.32-0.15-0.59-0.15h-1V23.33L68.9,23.33z M68.9,25.17H70c0.27,0,0.49-0.07,0.64-0.2c0.15-0.12,0.22-0.29,0.22-0.51
		c0-0.24-0.07-0.42-0.22-0.51c-0.15-0.12-0.39-0.17-0.69-0.17H68.9V25.17L68.9,25.17z M72.75,24h1.25l-0.61-1.76L72.75,24L72.75,24z
		 M71.59,25.64l1.49-3.99h0.59l1.49,3.99h-0.59l-0.42-1.18h-1.59l-0.42,1.18H71.59L71.59,25.64z M75.59,25.64v-3.99h0.54v1.94
		l1.91-1.94h0.73l-1.64,1.62l1.67,2.38h-0.66l-1.4-1.98l-0.61,0.59v1.4H75.59L75.59,25.64z M79.8,24h1.22l-0.61-1.76L79.8,24
		L79.8,24z M78.62,25.64h0.56l0.44-1.18h1.57l0.42,1.18h0.59l-1.49-3.99h-0.59L78.62,25.64L78.62,25.64z M82.62,25.64v-3.99h0.59
		l1.86,2.92l0.12,0.17c0.02,0.05,0.05,0.12,0.07,0.17v-3.26h0.51v3.99h-0.59l-1.91-2.94l-0.07-0.12l-0.07-0.17v3.23H82.62
		L82.62,25.64z M86.63,25.64v-3.99h0.54v3.5h1.98v0.49H86.63L86.63,25.64z M89.6,25.64v-3.99h0.54v3.99H89.6L89.6,25.64z
		 M94.01,25.12c-0.15,0.2-0.34,0.37-0.59,0.47c-0.22,0.12-0.47,0.17-0.76,0.17c-0.54,0-0.98-0.2-1.3-0.59
		c-0.34-0.37-0.51-0.88-0.51-1.52c0-0.64,0.17-1.15,0.51-1.54c0.34-0.37,0.83-0.56,1.42-0.56c0.47,0,0.83,0.12,1.1,0.34
		c0.29,0.24,0.47,0.56,0.54,0.98h-0.54c-0.05-0.27-0.17-0.49-0.37-0.64c-0.2-0.15-0.44-0.22-0.73-0.22c-0.44,0-0.76,0.15-1,0.44
		c-0.24,0.27-0.37,0.66-0.37,1.18c0,0.51,0.12,0.93,0.34,1.2c0.24,0.29,0.56,0.44,0.98,0.44c0.39,0,0.69-0.12,0.91-0.34
		c0.22-0.24,0.34-0.54,0.34-0.93v-0.05h-1.25v-0.47h1.74v2.16h-0.34L94.01,25.12L94.01,25.12z M91.93,20.44h0.29
		c0,0.07,0,0.12,0.02,0.17c0.02,0.05,0.07,0.1,0.1,0.12c0.1,0.07,0.22,0.1,0.37,0.1c0.17,0,0.29-0.02,0.37-0.1
		c0.05-0.02,0.07-0.07,0.1-0.12c0.02-0.02,0.02-0.1,0.02-0.17h0.29c0,0.15,0,0.24-0.05,0.34c-0.05,0.1-0.1,0.17-0.17,0.24
		c-0.12,0.12-0.29,0.17-0.56,0.17c-0.24,0-0.44-0.05-0.56-0.17c-0.07-0.07-0.12-0.15-0.15-0.24C91.95,20.69,91.93,20.59,91.93,20.44
		L91.93,20.44z M95.28,25.64v-3.99h0.54v3.99H95.28L95.28,25.64z"/>
	<path class="st1" d="M4.74,79.38v-0.15h0.22c0.24,0,0.42-0.1,0.51-0.24c0.05-0.1,0.1-0.29,0.1-0.64v-3.72
		c0-0.37-0.05-0.59-0.12-0.69c-0.12-0.12-0.27-0.17-0.49-0.17H4.74V73.6h2.33c0.86,0,1.49,0.1,1.96,0.29
		c0.44,0.2,0.78,0.54,1.05,0.98c0.27,0.47,0.42,0.98,0.42,1.59c0,0.81-0.24,1.47-0.73,2.01c-0.54,0.61-1.35,0.91-2.47,0.91H4.74
		L4.74,79.38z M6.38,78.97c0.34,0.07,0.64,0.12,0.88,0.12c0.66,0,1.2-0.24,1.62-0.69c0.44-0.47,0.66-1.1,0.66-1.89
		c0-0.81-0.22-1.45-0.66-1.89c-0.42-0.47-0.98-0.71-1.64-0.71c-0.24,0-0.54,0.05-0.86,0.12V78.97L6.38,78.97z M12.63,73.92v2.28
		h1.25c0.34,0,0.54-0.05,0.66-0.15c0.15-0.12,0.22-0.34,0.24-0.69h0.15v2.01h-0.15c-0.05-0.27-0.07-0.47-0.12-0.54
		c-0.05-0.1-0.12-0.17-0.24-0.24c-0.12-0.05-0.29-0.07-0.54-0.07h-1.25v1.91c0,0.24,0,0.42,0.02,0.47c0.02,0.05,0.07,0.1,0.12,0.12
		c0.05,0.05,0.17,0.05,0.32,0.05h0.98c0.32,0,0.56-0.02,0.69-0.07c0.15-0.02,0.29-0.12,0.44-0.27c0.17-0.17,0.34-0.44,0.54-0.78
		h0.15l-0.49,1.45h-4.38v-0.15h0.2c0.12,0,0.27-0.05,0.37-0.1c0.1-0.05,0.17-0.12,0.2-0.22c0.02-0.07,0.05-0.27,0.05-0.54V74.6
		c0-0.37-0.05-0.59-0.12-0.66c-0.1-0.12-0.27-0.17-0.49-0.17h-0.2V73.6h4.38l0.07,1.27H15.3c-0.05-0.32-0.12-0.51-0.2-0.64
		c-0.07-0.1-0.17-0.2-0.32-0.24c-0.1-0.05-0.29-0.07-0.59-0.07H12.63L12.63,73.92z M22.23,73.6v0.17c-0.22,0.02-0.37,0.1-0.47,0.2
		c-0.15,0.12-0.29,0.34-0.39,0.64l-2.01,4.9h-0.15l-2.13-4.97c-0.12-0.24-0.2-0.42-0.24-0.47c-0.07-0.1-0.15-0.15-0.27-0.2
		c-0.1-0.05-0.22-0.1-0.39-0.1V73.6h2.33v0.17c-0.27,0.02-0.44,0.07-0.51,0.12c-0.07,0.07-0.12,0.15-0.12,0.24
		c0,0.15,0.07,0.37,0.2,0.69l1.45,3.38l1.35-3.36c0.15-0.32,0.2-0.54,0.2-0.69c0-0.07-0.02-0.15-0.12-0.22
		c-0.07-0.07-0.22-0.15-0.39-0.17c-0.02,0-0.05,0-0.07,0V73.6H22.23L22.23,73.6z M27.28,77.79l0.12,0.02l-0.49,1.57H22.5v-0.15h0.22
		c0.24,0,0.42-0.1,0.51-0.24c0.05-0.1,0.07-0.29,0.07-0.64v-3.72c0-0.37-0.02-0.59-0.1-0.69c-0.12-0.12-0.29-0.17-0.49-0.17H22.5
		V73.6h2.57v0.17c-0.29,0-0.51,0.02-0.64,0.07c-0.12,0.07-0.2,0.15-0.24,0.22c-0.05,0.1-0.07,0.32-0.07,0.66v3.63
		c0,0.24,0.02,0.39,0.07,0.49c0.05,0.05,0.1,0.1,0.17,0.12c0.05,0.05,0.27,0.05,0.64,0.05h0.42c0.44,0,0.76-0.02,0.93-0.1
		c0.17-0.07,0.34-0.17,0.49-0.34C26.99,78.4,27.13,78.13,27.28,77.79L27.28,77.79z M29.41,73.92v2.28h1.25
		c0.32,0,0.54-0.05,0.64-0.15c0.15-0.12,0.24-0.34,0.24-0.69h0.17v2.01h-0.17c-0.02-0.27-0.07-0.47-0.1-0.54
		c-0.05-0.1-0.15-0.17-0.27-0.24c-0.1-0.05-0.27-0.07-0.51-0.07h-1.25v1.91c0,0.24,0,0.42,0.02,0.47c0.02,0.05,0.05,0.1,0.12,0.12
		c0.05,0.05,0.15,0.05,0.32,0.05h0.96c0.34,0,0.56-0.02,0.71-0.07c0.15-0.02,0.29-0.12,0.42-0.27c0.17-0.17,0.37-0.44,0.54-0.78
		h0.17l-0.49,1.45h-4.41v-0.15h0.2c0.15,0,0.27-0.05,0.39-0.1c0.1-0.05,0.15-0.12,0.2-0.22c0.02-0.07,0.02-0.27,0.02-0.54V74.6
		c0-0.37-0.02-0.59-0.1-0.66c-0.1-0.12-0.27-0.17-0.51-0.17h-0.2V73.6h4.41l0.05,1.27h-0.15c-0.07-0.32-0.12-0.51-0.2-0.64
		c-0.07-0.1-0.17-0.2-0.32-0.24c-0.12-0.05-0.32-0.07-0.59-0.07H29.41L29.41,73.92z M37.86,73.6l0.05,1.37h-0.15
		c-0.02-0.24-0.07-0.42-0.12-0.51c-0.1-0.17-0.22-0.29-0.34-0.37c-0.15-0.07-0.34-0.12-0.59-0.12H35.9v4.41
		c0,0.37,0.05,0.59,0.12,0.66c0.1,0.12,0.27,0.2,0.49,0.2h0.2v0.15h-2.43v-0.15h0.22c0.22,0,0.39-0.07,0.51-0.22
		c0.05-0.1,0.07-0.32,0.07-0.64v-4.41h-0.69c-0.27,0-0.44,0.02-0.56,0.05c-0.15,0.07-0.27,0.17-0.37,0.32
		c-0.1,0.15-0.17,0.37-0.2,0.64h-0.15l0.05-1.37H37.86L37.86,73.6z M44.97,73.6l0.07,1.37h-0.17c-0.02-0.24-0.07-0.42-0.12-0.51
		c-0.07-0.17-0.2-0.29-0.34-0.37c-0.15-0.07-0.34-0.12-0.56-0.12h-0.81v4.41c0,0.37,0.02,0.59,0.1,0.66c0.12,0.12,0.29,0.2,0.51,0.2
		h0.2v0.15h-2.43v-0.15h0.2c0.24,0,0.42-0.07,0.51-0.22c0.07-0.1,0.1-0.32,0.1-0.64v-4.41h-0.69c-0.27,0-0.47,0.02-0.56,0.05
		c-0.15,0.07-0.27,0.17-0.39,0.32c-0.1,0.15-0.15,0.37-0.17,0.64h-0.17l0.07-1.37H44.97L44.97,73.6z M47.91,79.23v0.15h-2.45v-0.15
		h0.22c0.22,0,0.39-0.07,0.51-0.22c0.05-0.1,0.1-0.32,0.1-0.66v-3.72c0-0.29-0.02-0.49-0.05-0.59c-0.05-0.07-0.1-0.12-0.17-0.17
		c-0.15-0.07-0.27-0.1-0.39-0.1h-0.22V73.6h2.45v0.17h-0.2c-0.24,0-0.42,0.07-0.51,0.2c-0.07,0.1-0.1,0.32-0.1,0.66v3.72
		c0,0.29,0.02,0.49,0.05,0.59c0.02,0.07,0.1,0.12,0.17,0.17c0.12,0.07,0.24,0.12,0.39,0.12H47.91L47.91,79.23z M46.68,72.11
		c0.12,0,0.24,0.05,0.34,0.12c0.07,0.1,0.12,0.22,0.12,0.34c0,0.12-0.05,0.22-0.12,0.32c-0.1,0.1-0.22,0.15-0.34,0.15
		c-0.12,0-0.22-0.05-0.32-0.15c-0.1-0.1-0.12-0.2-0.12-0.32c0-0.12,0.02-0.24,0.12-0.34C46.46,72.16,46.56,72.11,46.68,72.11
		L46.68,72.11z M52.24,73.6h1.96v0.17h-0.1c-0.07,0-0.2,0.02-0.32,0.1c-0.15,0.05-0.27,0.15-0.39,0.27
		c-0.12,0.12-0.27,0.32-0.42,0.61l-1.37,2.18v1.45c0,0.37,0.05,0.59,0.12,0.66c0.1,0.12,0.27,0.2,0.51,0.2h0.17v0.15h-2.43v-0.15
		h0.22c0.22,0,0.39-0.07,0.51-0.22c0.05-0.1,0.07-0.32,0.07-0.64v-1.37l-1.57-2.4c-0.17-0.29-0.29-0.47-0.37-0.54
		c-0.07-0.07-0.2-0.17-0.42-0.27c-0.05-0.02-0.12-0.02-0.24-0.02V73.6h2.45v0.17h-0.12c-0.15,0-0.27,0.02-0.37,0.07
		c-0.12,0.07-0.17,0.17-0.17,0.29c0,0.1,0.1,0.29,0.27,0.56l1.18,1.86l1.1-1.79c0.17-0.27,0.24-0.47,0.24-0.59
		c0-0.1,0-0.17-0.05-0.22c-0.05-0.07-0.1-0.12-0.17-0.15c-0.07-0.05-0.17-0.05-0.32-0.05V73.6L52.24,73.6z M57.31,77.45l0.34,0.83
		c0.12,0.27,0.17,0.47,0.17,0.59c0,0.1-0.02,0.17-0.12,0.24c-0.07,0.07-0.22,0.1-0.44,0.12v0.15h2.25v-0.15
		c-0.24-0.02-0.42-0.1-0.56-0.2c-0.12-0.12-0.27-0.37-0.42-0.76l-2.01-4.8h-0.15l-2.01,4.75c-0.17,0.42-0.32,0.69-0.47,0.83
		c-0.07,0.07-0.22,0.12-0.47,0.17v0.15h1.79v-0.15c-0.27-0.02-0.44-0.07-0.54-0.15c-0.07-0.05-0.12-0.15-0.12-0.22
		c0-0.12,0.05-0.29,0.15-0.51l0.39-0.91H57.31L57.31,77.45z M57.21,77.13h-1.98l1-2.33L57.21,77.13L57.21,77.13z M63.63,73.6
		l0.07,1.37h-0.17c-0.02-0.24-0.07-0.42-0.12-0.51c-0.07-0.17-0.2-0.29-0.34-0.37c-0.15-0.07-0.34-0.12-0.56-0.12H61.7v4.41
		c0,0.37,0.02,0.59,0.1,0.66c0.12,0.12,0.29,0.2,0.51,0.2h0.2v0.15h-2.43v-0.15h0.2c0.24,0,0.42-0.07,0.51-0.22
		c0.07-0.1,0.1-0.32,0.1-0.64v-4.41H60.2c-0.27,0-0.47,0.02-0.56,0.05c-0.15,0.07-0.27,0.17-0.39,0.32
		c-0.1,0.15-0.15,0.37-0.17,0.64H58.9l0.07-1.37H63.63L63.63,73.6z M69.76,79.38h-1.54l-1.94-2.69c-0.12,0-0.24,0-0.34,0
		c-0.02,0-0.07,0-0.12,0c-0.02,0-0.07,0-0.12,0v1.67c0,0.37,0.05,0.59,0.12,0.69c0.1,0.12,0.27,0.2,0.47,0.2h0.24v0.15h-2.45v-0.15
		h0.2c0.24,0,0.42-0.1,0.54-0.24c0.05-0.1,0.07-0.29,0.07-0.64v-3.72c0-0.37-0.02-0.59-0.12-0.69c-0.1-0.12-0.27-0.17-0.49-0.17
		h-0.2V73.6h2.08c0.59,0,1.05,0.05,1.32,0.15c0.29,0.07,0.54,0.24,0.73,0.49c0.22,0.24,0.32,0.51,0.32,0.86
		c0,0.34-0.12,0.66-0.34,0.93c-0.24,0.24-0.59,0.44-1.08,0.54l1.18,1.67c0.27,0.37,0.51,0.64,0.71,0.76c0.2,0.12,0.44,0.2,0.76,0.24
		V79.38L69.76,79.38z M65.69,76.42c0.05,0,0.1,0,0.15,0c0.02,0,0.07,0,0.1,0c0.54,0,0.96-0.12,1.22-0.37
		c0.27-0.22,0.42-0.54,0.42-0.91c0-0.37-0.12-0.66-0.34-0.88c-0.22-0.22-0.51-0.34-0.88-0.34c-0.17,0-0.39,0.05-0.66,0.1V76.42
		L65.69,76.42z M72.82,73.48c0.76,0,1.4,0.27,1.94,0.86c0.54,0.56,0.81,1.27,0.81,2.13c0,0.88-0.27,1.59-0.81,2.18
		c-0.56,0.59-1.22,0.86-1.98,0.86c-0.78,0-1.45-0.27-1.98-0.83c-0.54-0.56-0.81-1.3-0.81-2.2c0-0.91,0.32-1.67,0.93-2.23
		C71.45,73.72,72.08,73.48,72.82,73.48L72.82,73.48z M72.75,73.77c-0.51,0-0.93,0.2-1.22,0.59c-0.39,0.47-0.59,1.18-0.59,2.11
		c0,0.93,0.2,1.67,0.61,2.16c0.29,0.39,0.71,0.59,1.2,0.59c0.54,0,0.98-0.22,1.35-0.64c0.34-0.42,0.51-1.08,0.51-2.01
		c0-0.98-0.2-1.71-0.59-2.2C73.73,73.97,73.28,73.77,72.75,73.77L72.75,73.77z M80.85,77.79l0.12,0.02l-0.49,1.57h-4.41v-0.15h0.22
		c0.24,0,0.42-0.1,0.51-0.24c0.05-0.1,0.07-0.29,0.07-0.64v-3.72c0-0.37-0.02-0.59-0.1-0.69c-0.12-0.12-0.27-0.17-0.49-0.17h-0.22
		V73.6h2.6v0.17c-0.32,0-0.54,0.02-0.66,0.07c-0.12,0.07-0.2,0.15-0.24,0.22c-0.05,0.1-0.05,0.32-0.05,0.66v3.63
		c0,0.24,0,0.39,0.05,0.49c0.05,0.05,0.1,0.1,0.17,0.12c0.05,0.05,0.27,0.05,0.64,0.05h0.42c0.44,0,0.76-0.02,0.93-0.1
		c0.17-0.07,0.34-0.17,0.49-0.34C80.56,78.4,80.71,78.13,80.85,77.79L80.85,77.79z M85.12,77.45h-2.2l-0.39,0.91
		c-0.1,0.22-0.15,0.39-0.15,0.51c0,0.07,0.05,0.17,0.12,0.22c0.1,0.07,0.27,0.12,0.54,0.15v0.15h-1.79v-0.15
		c0.24-0.05,0.39-0.1,0.47-0.17c0.15-0.15,0.29-0.42,0.47-0.83l2.01-4.75h0.15l1.98,4.8c0.17,0.39,0.32,0.64,0.44,0.76
		c0.12,0.1,0.32,0.17,0.54,0.2v0.15h-2.25v-0.15c0.24-0.02,0.39-0.05,0.47-0.12c0.1-0.07,0.12-0.15,0.12-0.24
		c0-0.12-0.05-0.32-0.17-0.59L85.12,77.45L85.12,77.45z M84.99,77.13l-0.96-2.33l-1,2.33H84.99L84.99,77.13z M93.22,79.38h-1.52
		l-1.94-2.69c-0.15,0-0.24,0-0.34,0c-0.05,0-0.07,0-0.12,0c-0.05,0-0.07,0-0.12,0v1.67c0,0.37,0.02,0.59,0.12,0.69
		c0.1,0.12,0.24,0.2,0.47,0.2h0.22v0.15h-2.45v-0.15h0.22c0.24,0,0.42-0.1,0.51-0.24c0.07-0.1,0.1-0.29,0.1-0.64v-3.72
		c0-0.37-0.05-0.59-0.12-0.69c-0.1-0.12-0.27-0.17-0.49-0.17h-0.22V73.6h2.08c0.61,0,1.05,0.05,1.35,0.15
		c0.29,0.07,0.54,0.24,0.73,0.49c0.2,0.24,0.29,0.51,0.29,0.86c0,0.34-0.1,0.66-0.34,0.93c-0.22,0.24-0.59,0.44-1.05,0.54l1.18,1.67
		c0.27,0.37,0.51,0.64,0.69,0.76c0.2,0.12,0.47,0.2,0.76,0.24V79.38L93.22,79.38z M89.18,76.42c0.05,0,0.1,0,0.12,0
		c0.05,0,0.07,0,0.1,0c0.56,0,0.96-0.12,1.25-0.37c0.27-0.22,0.42-0.54,0.42-0.91c0-0.37-0.12-0.66-0.34-0.88
		c-0.22-0.22-0.51-0.34-0.88-0.34c-0.17,0-0.39,0.05-0.66,0.1V76.42L89.18,76.42z M95.82,79.23v0.15h-2.45v-0.15h0.2
		c0.24,0,0.42-0.07,0.51-0.22c0.07-0.1,0.1-0.32,0.1-0.66v-3.72c0-0.29,0-0.49-0.05-0.59c-0.02-0.07-0.07-0.12-0.17-0.17
		c-0.12-0.07-0.24-0.1-0.39-0.1h-0.2V73.6h2.45v0.17h-0.2c-0.24,0-0.42,0.07-0.51,0.2c-0.07,0.1-0.12,0.32-0.12,0.66v3.72
		c0,0.29,0.02,0.49,0.07,0.59c0.02,0.07,0.07,0.12,0.17,0.17c0.12,0.07,0.24,0.12,0.39,0.12H95.82L95.82,79.23z"/>
</g>
</svg>
