<svg xmlns="http://www.w3.org/2000/svg" xmlns:xlink="http://www.w3.org/1999/xlink" x="0px" y="0px" width="64px" height="64px" viewBox="0 0 64 64"><g stroke-width="3" transform="translate(0.5, 0.5)"><path d="M52,12a7,7,0,0,1-7,7,7,7,0,0,0-7,7" fill="none" stroke="#444444" stroke-linecap="square" stroke-miterlimit="10" stroke-width="3" data-color="color-2" stroke-linejoin="miter"></path><circle cx="41.5" cy="5.5" r="2.5" fill="none" stroke="#444444" stroke-linecap="square" stroke-miterlimit="10" stroke-width="3" data-color="color-2" stroke-linejoin="miter"></circle><circle cx="58.5" cy="22.5" r="2.5" fill="none" stroke="#444444" stroke-linecap="square" stroke-miterlimit="10" stroke-width="3" data-color="color-2" stroke-linejoin="miter"></circle><circle cx="58" cy="6" r="3" fill="none" stroke="#444444" stroke-linecap="square" stroke-miterlimit="10" stroke-width="3" data-color="color-2" stroke-linejoin="miter"></circle><line x1="29" y1="4" x2="26" y2="13" fill="none" stroke="#444444" stroke-linecap="square" stroke-miterlimit="10" stroke-width="3" data-color="color-2" stroke-linejoin="miter"></line><line x1="32" y1="19" x2="37" y2="12" fill="none" stroke="#444444" stroke-linecap="square" stroke-miterlimit="10" stroke-width="3" data-color="color-2" stroke-linejoin="miter"></line><line x1="45" y1="32" x2="52" y2="27" fill="none" stroke="#444444" stroke-linecap="square" stroke-miterlimit="10" stroke-width="3" data-color="color-2" stroke-linejoin="miter"></line><path d="M3.646,59.142,19,15,49,47,4.882,60.427A1,1,0,0,1,3.646,59.142Z" fill="none" stroke="#444444" stroke-linecap="square" stroke-miterlimit="10" stroke-width="3" stroke-linejoin="miter"></path><line x1="14.5" y1="57.5" x2="9.468" y2="42.404" fill="none" stroke="#444444" stroke-miterlimit="10" stroke-width="3" data-cap="butt" stroke-linecap="butt" stroke-linejoin="miter"></line><line x1="24.789" y1="54.368" x2="15.255" y2="25.766" fill="none" stroke="#444444" stroke-miterlimit="10" stroke-width="3" data-cap="butt" stroke-linecap="butt" stroke-linejoin="miter"></line><line x1="35.079" y1="51.237" x2="25.207" y2="21.621" fill="none" stroke="#444444" stroke-miterlimit="10" stroke-width="3" data-cap="butt" stroke-linecap="butt" stroke-linejoin="miter"></line><line x1="60" y1="35" x2="51" y2="38" fill="none" stroke="#444444" stroke-linecap="square" stroke-miterlimit="10" stroke-width="3" data-color="color-2" stroke-linejoin="miter"></line></g></svg>