<?xml version="1.0" encoding="utf-8"?>
<!-- Generator: Adobe Illustrator 27.0.1, SVG Export Plug-In . SVG Version: 6.00 Build 0)  -->
<svg version="1.1" id="Layer_1" xmlns="http://www.w3.org/2000/svg" xmlns:xlink="http://www.w3.org/1999/xlink" x="0px" y="0px"
	 viewBox="0 0 31.67 32" style="enable-background:new 0 0 31.67 32;" xml:space="preserve">
<style type="text/css">
	.st0{fill:#545554;}
	.st1{fill-rule:evenodd;clip-rule:evenodd;fill:#545554;}
</style>
<g>
	<g>
		<g>
			<g>
				<g>
					<path class="st0" d="M26.41,26.57h-0.55c-0.11,0-0.15-0.14-0.07-0.21l0.16-0.14c0.13-0.12,0.3-0.18,0.48-0.18h0.55
						c0.11,0,0.15,0.14,0.07,0.21l-0.16,0.14C26.75,26.5,26.58,26.57,26.41,26.57"/>
					<path class="st0" d="M27.13,25.79l-0.55,0.04c-0.1,0.01-0.16-0.13-0.08-0.21l0.15-0.15c0.13-0.13,0.29-0.2,0.46-0.21l0.55-0.04
						c0.11-0.01,0.16,0.13,0.08,0.21l-0.15,0.15C27.46,25.71,27.3,25.78,27.13,25.79"/>
					<path class="st0" d="M27.79,24.97l-0.55,0.08c-0.1,0.01-0.17-0.12-0.1-0.2l0.14-0.16c0.12-0.13,0.27-0.22,0.45-0.24l0.55-0.08
						c0.1-0.01,0.17,0.12,0.1,0.2l-0.14,0.16C28.12,24.86,27.96,24.95,27.79,24.97"/>
					<path class="st0" d="M28.4,24.11l-0.54,0.11c-0.1,0.02-0.18-0.11-0.11-0.19l0.13-0.17c0.11-0.14,0.26-0.24,0.43-0.28l0.54-0.11
						c0.1-0.02,0.18,0.11,0.11,0.19l-0.13,0.17C28.72,23.97,28.57,24.07,28.4,24.11"/>
					<path class="st0" d="M28.94,23.2l-0.53,0.15c-0.1,0.03-0.19-0.1-0.13-0.19l0.11-0.17c0.1-0.15,0.24-0.26,0.41-0.3l0.53-0.15
						c0.1-0.03,0.19,0.09,0.13,0.19l-0.11,0.18C29.25,23.04,29.11,23.15,28.94,23.2"/>
					<path class="st0" d="M29.42,22.26l-0.52,0.19c-0.1,0.04-0.19-0.08-0.14-0.18l0.1-0.18c0.09-0.16,0.22-0.27,0.39-0.33l0.52-0.19
						c0.1-0.04,0.19,0.08,0.14,0.18l-0.1,0.18C29.72,22.08,29.58,22.2,29.42,22.26"/>
					<path class="st0" d="M29.83,21.28l-0.5,0.22c-0.1,0.04-0.2-0.07-0.15-0.17l0.09-0.19c0.08-0.16,0.2-0.29,0.36-0.36l0.5-0.22
						c0.1-0.04,0.2,0.07,0.15,0.17l-0.09,0.19C30.12,21.09,29.99,21.21,29.83,21.28"/>
					<path class="st0" d="M30.17,20.29l-0.49,0.26c-0.09,0.05-0.2-0.05-0.16-0.16l0.08-0.2c0.07-0.17,0.18-0.3,0.34-0.38l0.49-0.26
						c0.09-0.05,0.2,0.05,0.16,0.16l-0.07,0.19C30.44,20.07,30.33,20.21,30.17,20.29"/>
					<path class="st0" d="M30.45,19.27l-0.47,0.29c-0.09,0.06-0.2-0.04-0.17-0.14l0.06-0.2c0.05-0.17,0.16-0.31,0.31-0.4l0.47-0.29
						c0.09-0.06,0.2,0.04,0.17,0.14l-0.06,0.2C30.7,19.03,30.59,19.17,30.45,19.27"/>
					<path class="st0" d="M30.65,18.23l-0.45,0.32c-0.09,0.06-0.21-0.03-0.18-0.13l0.05-0.2c0.04-0.17,0.14-0.32,0.28-0.43
						l0.45-0.32c0.09-0.06,0.21,0.03,0.18,0.13l-0.05,0.2C30.88,17.98,30.79,18.13,30.65,18.23"/>
					<path class="st0" d="M30.77,17.18l-0.42,0.35c-0.08,0.07-0.21-0.01-0.19-0.12l0.03-0.21c0.03-0.18,0.12-0.33,0.25-0.44
						l0.42-0.35c0.08-0.07,0.21,0.01,0.19,0.12l-0.03,0.21C30.99,16.91,30.91,17.07,30.77,17.18"/>
					<path class="st0" d="M30.83,16.13l-0.4,0.38c-0.08,0.07-0.21,0-0.2-0.1l0.02-0.21c0.02-0.18,0.09-0.34,0.22-0.46l0.4-0.38
						c0.08-0.07,0.21,0,0.2,0.11l-0.02,0.21C31.03,15.84,30.95,16.01,30.83,16.13"/>
					<path class="st0" d="M30.81,15.07l-0.37,0.41c-0.07,0.08-0.21,0.02-0.21-0.09l0-0.21c0-0.18,0.07-0.34,0.18-0.47l0.37-0.41
						c0.07-0.08,0.21-0.02,0.21,0.09l0,0.21C30.99,14.77,30.92,14.94,30.81,15.07"/>
					<path class="st0" d="M30.72,14.02l-0.34,0.43c-0.06,0.08-0.21,0.03-0.21-0.08l-0.01-0.21c-0.01-0.18,0.04-0.35,0.15-0.49
						l0.34-0.43c0.07-0.08,0.21-0.03,0.21,0.08l0.01,0.21C30.88,13.71,30.82,13.88,30.72,14.02"/>
					<path class="st0" d="M30.55,12.97l-0.31,0.46c-0.06,0.09-0.2,0.05-0.22-0.06L30,13.16c-0.02-0.18,0.02-0.35,0.12-0.5l0.31-0.46
						c0.06-0.09,0.2-0.05,0.22,0.06l0.03,0.21C30.69,12.66,30.65,12.83,30.55,12.97"/>
					<path class="st0" d="M30.31,11.95l-0.27,0.48c-0.05,0.09-0.2,0.06-0.22-0.05l-0.04-0.21c-0.03-0.17,0-0.35,0.08-0.5l0.27-0.48
						c0.05-0.09,0.2-0.06,0.22,0.05l0.04,0.2C30.43,11.62,30.4,11.8,30.31,11.95"/>
					<path class="st0" d="M30,10.93l-0.24,0.5c-0.05,0.09-0.2,0.07-0.22-0.03l-0.05-0.2c-0.05-0.17-0.03-0.35,0.05-0.51l0.24-0.49
						c0.05-0.09,0.2-0.07,0.22,0.03l0.05,0.2C30.09,10.6,30.08,10.78,30,10.93"/>
					<path class="st0" d="M29.62,9.95l-0.21,0.51c-0.04,0.1-0.19,0.09-0.22-0.02l-0.07-0.2c-0.06-0.17-0.05-0.35,0.01-0.51
						l0.21-0.51c0.04-0.1,0.19-0.09,0.22,0.02l0.07,0.2C29.69,9.61,29.69,9.79,29.62,9.95"/>
					<path class="st0" d="M29.17,8.99L29,9.52c-0.03,0.1-0.18,0.1-0.22,0L28.7,9.32c-0.07-0.16-0.08-0.34-0.02-0.51l0.17-0.52
						c0.03-0.1,0.18-0.1,0.22,0l0.08,0.19C29.22,8.65,29.23,8.83,29.17,8.99"/>
					<path class="st0" d="M28.66,8.07L28.53,8.6c-0.02,0.1-0.18,0.11-0.22,0.02l-0.1-0.19c-0.08-0.16-0.1-0.34-0.06-0.5l0.13-0.53
						c0.03-0.1,0.18-0.11,0.22-0.02l0.09,0.19C28.68,7.72,28.7,7.9,28.66,8.07"/>
					<path class="st0" d="M28.08,7.18l-0.1,0.54c-0.02,0.1-0.17,0.13-0.22,0.03l-0.11-0.18c-0.09-0.15-0.12-0.33-0.09-0.5l0.1-0.54
						c0.02-0.1,0.17-0.12,0.22-0.03l0.11,0.18C28.08,6.84,28.11,7.01,28.08,7.18"/>
					<path class="st0" d="M27.45,6.34l-0.06,0.55c-0.01,0.1-0.16,0.14-0.22,0.05l-0.12-0.17c-0.1-0.15-0.15-0.32-0.13-0.49
						l0.06-0.55c0.01-0.11,0.16-0.14,0.22-0.05l0.12,0.17C27.42,6,27.46,6.17,27.45,6.34"/>
					<path class="st0" d="M26.75,5.54l-0.02,0.55c0,0.11-0.15,0.15-0.22,0.06l-0.13-0.16c-0.11-0.14-0.17-0.31-0.16-0.48l0.02-0.55
						c0-0.11,0.15-0.15,0.22-0.06l0.13,0.16C26.7,5.2,26.76,5.37,26.75,5.54"/>
					<path class="st0" d="M26,4.8l0.02,0.55c0,0.11-0.14,0.16-0.21,0.08l-0.14-0.15c-0.12-0.13-0.19-0.3-0.2-0.47l-0.02-0.55
						c0-0.11,0.14-0.16,0.21-0.08l0.14,0.15C25.93,4.46,26,4.63,26,4.8"/>
					<path class="st0" d="M25.21,4.11l0.06,0.55c0.01,0.1-0.13,0.17-0.2,0.09L24.91,4.6c-0.13-0.12-0.21-0.28-0.23-0.45L24.62,3.6
						c-0.01-0.1,0.13-0.17,0.2-0.09l0.15,0.14C25.11,3.77,25.19,3.94,25.21,4.11"/>
					<path class="st0" d="M24.36,3.47l0.1,0.54c0.02,0.1-0.11,0.17-0.2,0.11L24.1,3.99c-0.14-0.11-0.23-0.27-0.26-0.44l-0.1-0.54
						c-0.02-0.1,0.11-0.18,0.2-0.11l0.16,0.13C24.24,3.15,24.33,3.3,24.36,3.47"/>
					<path class="st0" d="M23.48,2.9l0.13,0.53c0.03,0.1-0.1,0.18-0.19,0.12l-0.17-0.12C23.1,3.33,23,3.18,22.96,3.01l-0.13-0.53
						c-0.02-0.1,0.1-0.18,0.19-0.12l0.17,0.12C23.33,2.58,23.43,2.73,23.48,2.9"/>
					<path class="st0" d="M22.55,2.39l0.17,0.52c0.03,0.1-0.09,0.19-0.18,0.13l-0.18-0.11c-0.15-0.09-0.26-0.23-0.32-0.4l-0.17-0.52
						c-0.03-0.1,0.09-0.19,0.18-0.13l0.18,0.11C22.38,2.08,22.5,2.22,22.55,2.39"/>
					<path class="st0" d="M21.59,1.94l0.21,0.51c0.04,0.1-0.08,0.19-0.17,0.15l-0.18-0.1c-0.16-0.08-0.28-0.21-0.35-0.37l-0.21-0.51
						c-0.04-0.1,0.07-0.19,0.17-0.15l0.19,0.1C21.41,1.65,21.53,1.78,21.59,1.94"/>
					<path class="st0" d="M20.61,1.56l0.24,0.49c0.05,0.09-0.06,0.2-0.16,0.16l-0.19-0.08c-0.16-0.07-0.29-0.19-0.37-0.35
						l-0.24-0.49c-0.05-0.09,0.06-0.2,0.16-0.16l0.19,0.08C20.4,1.29,20.53,1.41,20.61,1.56"/>
					<path class="st0" d="M19.59,1.26l0.28,0.48c0.05,0.09-0.05,0.2-0.15,0.17l-0.2-0.07c-0.17-0.06-0.31-0.17-0.39-0.32l-0.28-0.48
						C18.8,0.94,18.9,0.83,19,0.87l0.2,0.07C19.37,0.99,19.51,1.11,19.59,1.26"/>
					<path class="st0" d="M18.56,1.02l0.31,0.46c0.06,0.09-0.03,0.21-0.14,0.18l-0.2-0.05c-0.17-0.05-0.32-0.15-0.42-0.29
						l-0.31-0.46c-0.06-0.09,0.03-0.21,0.14-0.18l0.2,0.06C18.32,0.77,18.47,0.88,18.56,1.02"/>
					<path class="st0" d="M17.52,0.86l0.34,0.43c0.06,0.08-0.02,0.21-0.13,0.19l-0.2-0.04C17.35,1.4,17.2,1.31,17.1,1.17l-0.34-0.43
						c-0.07-0.08,0.02-0.21,0.12-0.19l0.2,0.04C17.26,0.63,17.41,0.72,17.52,0.86"/>
					<path class="st0" d="M16.47,0.76l0.37,0.41c0.07,0.08,0,0.21-0.11,0.19l-0.21-0.02c-0.18-0.02-0.34-0.1-0.45-0.23L15.7,0.7
						c-0.07-0.08,0-0.21,0.11-0.19l0.21,0.03C16.19,0.55,16.35,0.64,16.47,0.76"/>
					<path class="st0" d="M15.41,0.75l0.4,0.38c0.08,0.07,0.01,0.21-0.1,0.2L15.5,1.32c-0.18-0.01-0.34-0.08-0.47-0.2l-0.4-0.38
						c-0.08-0.07-0.01-0.21,0.1-0.2l0.21,0.01C15.12,0.56,15.29,0.63,15.41,0.75"/>
					<path class="st0" d="M14.36,0.8l0.42,0.35c0.08,0.07,0.02,0.21-0.08,0.21l-0.21,0c-0.18,0-0.35-0.06-0.48-0.17l-0.42-0.35
						c-0.08-0.07-0.03-0.21,0.08-0.21l0.21,0C14.06,0.63,14.22,0.69,14.36,0.8"/>
					<path class="st0" d="M13.31,0.93l0.45,0.32c0.08,0.06,0.04,0.2-0.07,0.21l-0.21,0.02c-0.18,0.02-0.35-0.03-0.49-0.13
						l-0.45-0.32c-0.09-0.06-0.04-0.21,0.07-0.21l0.21-0.02C13,0.78,13.17,0.83,13.31,0.93"/>
					<path class="st0" d="M12.27,1.14l0.47,0.29c0.09,0.06,0.05,0.2-0.05,0.22l-0.21,0.03c-0.18,0.03-0.35-0.01-0.5-0.1l-0.47-0.29
						c-0.09-0.06-0.05-0.2,0.05-0.22l0.21-0.03C11.95,1.01,12.12,1.04,12.27,1.14"/>
					<path class="st0" d="M11.25,1.41l0.49,0.26c0.09,0.05,0.07,0.2-0.04,0.22l-0.2,0.05c-0.17,0.04-0.35,0.02-0.5-0.06L10.5,1.61
						c-0.09-0.05-0.07-0.2,0.04-0.22l0.2-0.05C10.92,1.31,11.1,1.33,11.25,1.41"/>
					<path class="st0" d="M10.25,1.76l0.5,0.22c0.1,0.04,0.08,0.19-0.02,0.22l-0.2,0.06c-0.17,0.05-0.35,0.04-0.51-0.03l-0.5-0.22
						c-0.1-0.04-0.08-0.19,0.02-0.22l0.2-0.06C9.92,1.68,10.09,1.69,10.25,1.76"/>
					<path class="st0" d="M9.28,2.17L9.8,2.36c0.1,0.04,0.09,0.19-0.01,0.22L9.6,2.66C9.43,2.72,9.25,2.72,9.09,2.66L8.57,2.48
						c-0.1-0.04-0.09-0.19,0.01-0.23l0.2-0.07C8.94,2.11,9.12,2.11,9.28,2.17"/>
					<path class="st0" d="M8.34,2.65L8.87,2.8c0.1,0.03,0.11,0.18,0.01,0.22L8.69,3.11C8.53,3.19,8.35,3.2,8.18,3.16L7.65,3
						c-0.1-0.03-0.11-0.18-0.01-0.22l0.19-0.09C7.99,2.62,8.17,2.6,8.34,2.65"/>
					<path class="st0" d="M7.43,3.19l0.54,0.11C8.08,3.33,8.09,3.48,8,3.53l-0.18,0.1c-0.16,0.09-0.33,0.11-0.5,0.08L6.77,3.6
						c-0.1-0.02-0.12-0.17-0.02-0.22l0.18-0.1C7.09,3.19,7.27,3.16,7.43,3.19"/>
					<path class="st0" d="M6.57,3.8l0.55,0.08c0.1,0.02,0.13,0.16,0.04,0.22L6.98,4.21c-0.15,0.1-0.32,0.14-0.5,0.11L5.94,4.25
						C5.83,4.23,5.81,4.09,5.9,4.03l0.18-0.11C6.22,3.82,6.4,3.78,6.57,3.8"/>
					<path class="st0" d="M5.75,4.47L6.3,4.51C6.4,4.51,6.44,4.66,6.35,4.72L6.19,4.85C6.04,4.96,5.87,5.01,5.7,5L5.15,4.96
						C5.04,4.95,5.01,4.8,5.09,4.74l0.17-0.13C5.4,4.51,5.58,4.45,5.75,4.47"/>
					<path class="st0" d="M4.98,5.19h0.55c0.1,0,0.15,0.14,0.07,0.21L5.44,5.54C5.3,5.65,5.14,5.72,4.96,5.72H4.41
						c-0.11,0-0.15-0.14-0.07-0.21L4.5,5.37C4.64,5.25,4.8,5.19,4.98,5.19"/>
					<path class="st0" d="M4.26,5.96l0.55-0.04c0.1-0.01,0.16,0.13,0.09,0.21L4.74,6.28C4.62,6.4,4.45,6.48,4.28,6.49L3.73,6.53
						C3.63,6.54,3.57,6.4,3.65,6.32L3.8,6.17C3.92,6.05,4.08,5.97,4.26,5.96"/>
					<path class="st0" d="M3.59,6.78l0.55-0.08c0.1-0.01,0.17,0.12,0.1,0.2L4.1,7.07C3.98,7.2,3.83,7.29,3.65,7.31L3.11,7.39
						C3,7.4,2.94,7.27,3.01,7.18l0.14-0.16C3.26,6.89,3.42,6.81,3.59,6.78"/>
					<path class="st0" d="M2.99,7.65l0.54-0.11c0.1-0.02,0.18,0.11,0.11,0.19L3.51,7.89C3.41,8.04,3.25,8.13,3.09,8.17L2.55,8.28
						c-0.1,0.02-0.18-0.11-0.11-0.19l0.13-0.17C2.67,7.78,2.82,7.68,2.99,7.65"/>
					<path class="st0" d="M2.44,8.55L2.97,8.4c0.1-0.03,0.19,0.1,0.13,0.19L2.99,8.76c-0.1,0.15-0.24,0.26-0.41,0.3L2.05,9.22
						c-0.1,0.03-0.19-0.1-0.13-0.19l0.11-0.18C2.13,8.71,2.28,8.6,2.44,8.55"/>
					<path class="st0" d="M1.97,9.5l0.52-0.19c0.1-0.04,0.19,0.08,0.14,0.18l-0.1,0.18C2.43,9.82,2.3,9.94,2.13,10l-0.52,0.19
						c-0.1,0.04-0.19-0.08-0.14-0.18l0.1-0.18C1.67,9.67,1.8,9.55,1.97,9.5"/>
					<path class="st0" d="M1.55,10.47l0.5-0.22c0.1-0.04,0.2,0.07,0.15,0.17L2.12,10.6c-0.08,0.16-0.2,0.29-0.36,0.36l-0.5,0.22
						c-0.1,0.04-0.2-0.07-0.15-0.17l0.09-0.19C1.27,10.67,1.4,10.54,1.55,10.47"/>
					<path class="st0" d="M1.21,11.47l0.49-0.26c0.09-0.05,0.2,0.05,0.16,0.16l-0.08,0.2c-0.06,0.17-0.18,0.3-0.34,0.38L0.96,12.2
						c-0.09,0.05-0.2-0.05-0.16-0.16l0.07-0.2C0.94,11.68,1.06,11.55,1.21,11.47"/>
					<path class="st0" d="M0.94,12.49l0.47-0.29c0.09-0.06,0.2,0.04,0.17,0.14l-0.06,0.2c-0.05,0.17-0.16,0.31-0.31,0.4l-0.47,0.29
						c-0.09,0.06-0.2-0.04-0.17-0.14l0.06-0.2C0.68,12.72,0.79,12.58,0.94,12.49"/>
					<path class="st0" d="M0.74,13.52l0.45-0.32c0.09-0.06,0.21,0.03,0.18,0.13l-0.05,0.2c-0.04,0.17-0.14,0.32-0.28,0.43
						l-0.45,0.32c-0.09,0.06-0.21-0.03-0.18-0.13l0.05-0.2C0.5,13.78,0.6,13.63,0.74,13.52"/>
					<path class="st0" d="M0.61,14.57l0.42-0.35c0.08-0.07,0.21,0.01,0.19,0.12l-0.03,0.21c-0.03,0.18-0.12,0.33-0.25,0.44
						l-0.42,0.35c-0.08,0.07-0.21-0.01-0.19-0.12l0.03-0.21C0.39,14.84,0.48,14.68,0.61,14.57"/>
					<path class="st0" d="M0.56,15.63l0.4-0.38c0.08-0.07,0.21,0,0.2,0.11l-0.02,0.21c-0.02,0.18-0.09,0.34-0.22,0.46l-0.4,0.38
						c-0.08,0.07-0.21,0-0.2-0.1l0.02-0.21C0.36,15.91,0.43,15.75,0.56,15.63"/>
					<path class="st0" d="M0.58,16.68l0.37-0.41c0.07-0.08,0.21-0.02,0.21,0.09l0,0.21c0,0.18-0.07,0.34-0.18,0.47l-0.37,0.41
						c-0.07,0.08-0.21,0.02-0.21-0.09l0-0.21C0.39,16.98,0.46,16.81,0.58,16.68"/>
					<path class="st0" d="M0.67,17.74l0.34-0.43c0.07-0.08,0.21-0.03,0.21,0.08l0.01,0.21c0.01,0.18-0.04,0.35-0.15,0.48l-0.34,0.43
						c-0.06,0.08-0.21,0.03-0.21-0.08l-0.01-0.21C0.51,18.04,0.56,17.87,0.67,17.74"/>
					<path class="st0" d="M0.84,18.78l0.31-0.46c0.06-0.09,0.2-0.05,0.22,0.06l0.03,0.21c0.02,0.18-0.02,0.35-0.12,0.49l-0.31,0.46
						c-0.06,0.09-0.2,0.05-0.22-0.06l-0.02-0.21C0.7,19.1,0.74,18.92,0.84,18.78"/>
					<path class="st0" d="M1.07,19.81l0.28-0.48c0.05-0.09,0.2-0.06,0.22,0.05l0.04,0.2c0.03,0.17,0,0.35-0.08,0.5l-0.27,0.48
						c-0.05,0.09-0.2,0.06-0.22-0.05l-0.04-0.21C0.96,20.14,0.99,19.96,1.07,19.81"/>
					<path class="st0" d="M1.38,20.82l0.24-0.5c0.05-0.09,0.19-0.07,0.22,0.03l0.05,0.2c0.05,0.17,0.03,0.35-0.05,0.51l-0.24,0.49
						c-0.05,0.09-0.2,0.07-0.22-0.03l-0.05-0.2C1.29,21.15,1.31,20.97,1.38,20.82"/>
					<path class="st0" d="M1.76,21.8l0.21-0.51c0.04-0.1,0.19-0.09,0.22,0.02l0.07,0.2c0.06,0.17,0.05,0.35-0.01,0.51l-0.21,0.51
						c-0.04,0.1-0.19,0.09-0.22-0.02l-0.07-0.2C1.7,22.14,1.7,21.96,1.76,21.8"/>
					<path class="st0" d="M2.21,22.76l0.17-0.52c0.03-0.1,0.18-0.1,0.22,0l0.08,0.19c0.07,0.16,0.08,0.34,0.02,0.51l-0.17,0.52
						c-0.03,0.1-0.18,0.1-0.22,0l-0.08-0.19C2.17,23.1,2.16,22.93,2.21,22.76"/>
					<path class="st0" d="M2.72,23.68l0.13-0.53c0.03-0.1,0.18-0.11,0.22-0.02l0.1,0.19c0.08,0.16,0.1,0.34,0.06,0.51L3.1,24.36
						c-0.03,0.1-0.17,0.11-0.22,0.02l-0.09-0.19C2.7,24.03,2.68,23.85,2.72,23.68"/>
					<path class="st0" d="M3.3,24.57l0.1-0.54c0.02-0.1,0.17-0.13,0.22-0.03l0.11,0.18c0.09,0.15,0.12,0.33,0.09,0.5l-0.1,0.54
						c-0.02,0.1-0.17,0.13-0.22,0.03L3.4,25.07C3.3,24.92,3.27,24.74,3.3,24.57"/>
					<path class="st0" d="M3.94,25.41L4,24.86c0.01-0.1,0.16-0.14,0.22-0.05l0.12,0.17c0.1,0.15,0.15,0.32,0.13,0.49l-0.06,0.55
						c-0.01,0.1-0.16,0.14-0.22,0.05L4.07,25.9C3.97,25.76,3.92,25.58,3.94,25.41"/>
					<path class="st0" d="M4.63,26.21l0.02-0.55c0-0.11,0.15-0.15,0.22-0.06L5,25.76c0.11,0.14,0.17,0.31,0.16,0.48l-0.02,0.55
						c0,0.11-0.15,0.15-0.22,0.06L4.8,26.69C4.68,26.55,4.63,26.38,4.63,26.21"/>
					<path class="st0" d="M5.38,26.96L5.36,26.4c0-0.11,0.14-0.16,0.21-0.08l0.14,0.15c0.12,0.13,0.19,0.3,0.2,0.47l0.02,0.55
						c0,0.11-0.14,0.16-0.21,0.08l-0.14-0.15C5.46,27.29,5.39,27.13,5.38,26.96"/>
					<path class="st0" d="M6.18,27.65L6.12,27.1c-0.01-0.1,0.13-0.17,0.2-0.09l0.15,0.14c0.13,0.12,0.21,0.28,0.23,0.45l0.06,0.55
						c0.01,0.1-0.13,0.17-0.2,0.09L6.41,28.1C6.28,27.98,6.2,27.82,6.18,27.65"/>
					<path class="st0" d="M7.02,28.28l-0.1-0.54c-0.02-0.1,0.11-0.18,0.2-0.11l0.16,0.13c0.14,0.11,0.23,0.27,0.26,0.44l0.1,0.54
						c0.02,0.1-0.11,0.17-0.2,0.11l-0.16-0.13C7.14,28.61,7.05,28.45,7.02,28.28"/>
					<path class="st0" d="M7.91,28.86l-0.13-0.53c-0.03-0.1,0.1-0.18,0.19-0.12l0.17,0.12c0.15,0.1,0.25,0.25,0.29,0.42l0.13,0.53
						c0.03,0.1-0.1,0.18-0.19,0.12L8.2,29.27C8.05,29.17,7.95,29.02,7.91,28.86"/>
					<path class="st0" d="M8.83,29.37l-0.17-0.52c-0.03-0.1,0.09-0.19,0.18-0.13l0.18,0.11c0.15,0.09,0.26,0.23,0.32,0.4l0.17,0.52
						c0.03,0.1-0.09,0.19-0.18,0.13l-0.18-0.11C9,29.67,8.89,29.53,8.83,29.37"/>
					<path class="st0" d="M9.79,29.81L9.59,29.3c-0.04-0.1,0.08-0.19,0.17-0.15l0.19,0.1c0.16,0.08,0.28,0.21,0.35,0.37l0.21,0.51
						c0.04,0.1-0.07,0.19-0.17,0.15l-0.19-0.1C9.98,30.1,9.86,29.97,9.79,29.81"/>
					<path class="st0" d="M10.78,30.19l-0.24-0.49c-0.05-0.09,0.06-0.2,0.16-0.16l0.19,0.08c0.16,0.07,0.29,0.19,0.37,0.35
						l0.24,0.49c0.05,0.09-0.06,0.2-0.16,0.16l-0.19-0.08C10.99,30.47,10.85,30.35,10.78,30.19"/>
					<path class="st0" d="M11.79,30.5l-0.28-0.48c-0.05-0.09,0.05-0.2,0.15-0.17l0.2,0.07c0.17,0.06,0.31,0.17,0.39,0.32l0.28,0.48
						c0.05,0.09-0.05,0.2-0.15,0.17l-0.2-0.07C12.01,30.76,11.88,30.65,11.79,30.5"/>
					<path class="st0" d="M12.82,30.73l-0.31-0.46c-0.06-0.09,0.03-0.21,0.14-0.18l0.2,0.05c0.17,0.05,0.32,0.15,0.42,0.29
						l0.31,0.46c0.06,0.09-0.03,0.21-0.14,0.18l-0.2-0.06C13.06,30.98,12.92,30.88,12.82,30.73"/>
					<path class="st0" d="M13.86,30.9l-0.34-0.43c-0.07-0.08,0.02-0.21,0.12-0.19l0.2,0.04c0.18,0.03,0.33,0.13,0.44,0.26l0.34,0.43
						c0.06,0.08-0.02,0.21-0.13,0.19l-0.2-0.04C14.12,31.13,13.97,31.04,13.86,30.9"/>
					<path class="st0" d="M14.92,30.99l-0.37-0.41c-0.07-0.08,0-0.21,0.11-0.2l0.21,0.03c0.18,0.02,0.34,0.1,0.45,0.23l0.37,0.41
						c0.07,0.08,0,0.21-0.11,0.2l-0.21-0.03C15.19,31.2,15.03,31.12,14.92,30.99"/>
					<path class="st0" d="M15.97,31.01l-0.4-0.38c-0.08-0.07-0.01-0.21,0.1-0.2l0.21,0.01c0.18,0.01,0.34,0.08,0.47,0.2l0.4,0.38
						c0.08,0.07,0.01,0.21-0.1,0.2l-0.21-0.01C16.26,31.2,16.1,31.13,15.97,31.01"/>
					<path class="st0" d="M17.03,30.95l-0.42-0.35c-0.08-0.07-0.03-0.21,0.08-0.21l0.21,0c0.18,0,0.35,0.06,0.48,0.17l0.42,0.35
						c0.08,0.07,0.03,0.21-0.08,0.21l-0.21,0C17.33,31.12,17.16,31.06,17.03,30.95"/>
					<path class="st0" d="M18.08,30.82l-0.45-0.32c-0.08-0.06-0.04-0.21,0.07-0.21l0.21-0.02c0.18-0.02,0.35,0.03,0.49,0.13
						l0.45,0.32c0.08,0.06,0.04,0.2-0.07,0.21l-0.21,0.02C18.39,30.97,18.22,30.92,18.08,30.82"/>
					<path class="st0" d="M19.11,30.62l-0.47-0.29c-0.09-0.05-0.05-0.2,0.05-0.22l0.21-0.03c0.18-0.03,0.35,0.01,0.5,0.1l0.47,0.29
						c0.09,0.06,0.05,0.2-0.05,0.22l-0.21,0.03C19.44,30.74,19.26,30.71,19.11,30.62"/>
					<path class="st0" d="M20.13,30.34l-0.49-0.26c-0.09-0.05-0.07-0.2,0.04-0.22l0.2-0.05c0.17-0.04,0.35-0.02,0.51,0.06l0.49,0.26
						c0.09,0.05,0.07,0.2-0.04,0.22l-0.2,0.05C20.46,30.45,20.29,30.42,20.13,30.34"/>
					<path class="st0" d="M21.13,30l-0.5-0.22c-0.1-0.04-0.08-0.19,0.02-0.22l0.2-0.06c0.17-0.05,0.35-0.04,0.51,0.03l0.5,0.22
						c0.1,0.04,0.08,0.19-0.02,0.22l-0.2,0.06C21.47,30.08,21.29,30.07,21.13,30"/>
					<path class="st0" d="M22.1,29.59l-0.52-0.19c-0.1-0.04-0.09-0.19,0.01-0.22l0.2-0.07c0.17-0.06,0.35-0.07,0.51-0.01l0.52,0.19
						c0.1,0.04,0.09,0.19-0.01,0.23l-0.2,0.07C22.45,29.64,22.27,29.64,22.1,29.59"/>
					<path class="st0" d="M23.05,29.1l-0.53-0.15c-0.1-0.03-0.11-0.18-0.01-0.23l0.19-0.09c0.16-0.08,0.34-0.09,0.51-0.04l0.53,0.15
						c0.1,0.03,0.11,0.18,0.01,0.22l-0.19,0.09C23.39,29.14,23.21,29.15,23.05,29.1"/>
					<path class="st0" d="M23.95,28.56l-0.54-0.11c-0.1-0.02-0.12-0.17-0.02-0.22l0.18-0.1c0.16-0.09,0.33-0.11,0.5-0.08l0.54,0.11
						c0.1,0.02,0.12,0.17,0.02,0.22l-0.18,0.1C24.3,28.57,24.12,28.59,23.95,28.56"/>
					<path class="st0" d="M24.82,27.95l-0.55-0.08c-0.11-0.01-0.13-0.16-0.04-0.22l0.18-0.11c0.15-0.1,0.32-0.14,0.5-0.11l0.55,0.08
						c0.1,0.02,0.13,0.16,0.04,0.22l-0.18,0.11C25.16,27.94,24.99,27.98,24.82,27.95"/>
					<path class="st0" d="M25.64,27.29l-0.55-0.04c-0.1-0.01-0.14-0.15-0.05-0.22l0.17-0.13c0.14-0.11,0.31-0.16,0.49-0.15
						l0.55,0.04c0.11,0.01,0.14,0.15,0.06,0.22l-0.17,0.13C25.98,27.25,25.81,27.3,25.64,27.29"/>
				</g>
			</g>
			<polygon class="st1" points="14.28,3.96 15.15,3.33 14.81,2.3 15.68,2.94 16.56,2.3 16.23,3.32 17.11,3.96 16.03,3.95 
				15.69,4.99 15.37,3.96 			"/>
			<polygon class="st1" points="9.83,5.41 10.39,4.5 9.68,3.67 10.73,3.93 11.3,3 11.38,4.07 12.44,4.32 11.44,4.73 11.53,5.82 
				10.83,4.99 			"/>
			<polygon class="st1" points="6.27,8.45 6.44,7.39 5.47,6.9 6.54,6.73 6.71,5.66 7.19,6.62 8.27,6.45 7.5,7.21 8,8.18 7.04,7.68 
							"/>
			<polygon class="st1" points="4.15,12.63 3.9,11.58 2.81,11.49 3.74,10.93 3.48,9.87 4.3,10.58 5.22,10.01 4.81,11 5.64,11.71 
				4.56,11.62 			"/>
			<polygon class="st1" points="3.78,17.29 3.15,16.42 2.11,16.76 2.75,15.88 2.11,15.01 3.14,15.34 3.77,14.46 3.77,15.54 
				4.81,15.87 3.78,16.2 			"/>
			<polygon class="st1" points="5.23,21.74 4.31,21.17 3.48,21.88 3.74,20.83 2.81,20.27 3.89,20.19 4.14,19.13 4.55,20.13 
				5.63,20.04 4.81,20.74 			"/>
			<polygon class="st1" points="8.27,25.3 7.2,25.13 6.71,26.1 6.55,25.03 5.47,24.86 6.44,24.38 6.26,23.3 7.02,24.07 7.99,23.57 
				7.5,24.53 			"/>
			<polygon class="st1" points="12.44,27.42 11.39,27.67 11.31,28.76 10.75,27.83 9.69,28.09 10.39,27.27 9.82,26.35 10.82,26.76 
				11.52,25.93 11.43,27.01 			"/>
			<polygon class="st1" points="17.11,27.79 16.23,28.42 16.57,29.45 15.7,28.82 14.82,29.46 15.16,28.43 14.28,27.79 15.36,27.8 
				15.69,26.76 16.02,27.79 			"/>
			<polygon class="st1" points="21.56,26.34 20.99,27.26 21.7,28.08 20.65,27.83 20.08,28.76 20,27.68 18.94,27.43 19.94,27.02 
				19.86,25.94 20.55,26.76 			"/>
			<polygon class="st1" points="25.12,23.3 24.94,24.36 25.91,24.86 24.85,25.02 24.68,26.1 24.19,25.13 23.12,25.3 23.89,24.54 
				23.39,23.58 24.35,24.07 			"/>
			<polygon class="st1" points="27.24,19.13 27.49,20.18 28.57,20.26 27.65,20.82 27.91,21.88 27.09,21.17 26.16,21.75 26.58,20.75 
				25.75,20.04 26.83,20.13 			"/>
			<polygon class="st1" points="27.6,14.46 28.23,15.34 29.27,15 28.63,15.87 29.27,16.75 28.25,16.41 27.61,17.29 27.61,16.21 
				26.58,15.88 27.61,15.55 			"/>
			<polygon class="st1" points="26.16,10.01 27.07,10.58 27.9,9.87 27.64,10.92 28.57,11.49 27.5,11.56 27.24,12.62 26.84,11.62 
				25.75,11.71 26.57,11.02 			"/>
			<polygon class="st1" points="23.11,6.45 24.18,6.63 24.67,5.66 24.84,6.72 25.91,6.89 24.95,7.38 25.12,8.45 24.36,7.68 
				23.39,8.18 23.89,7.22 			"/>
			<polygon class="st1" points="18.94,4.33 19.99,4.08 20.08,3 20.64,3.92 21.69,3.66 20.99,4.48 21.56,5.41 20.56,4.99 19.86,5.82 
				19.95,4.74 			"/>
		</g>
		<path class="st0" d="M15.69,26.15c-5.66,0-10.27-4.61-10.27-10.27c0-5.66,4.61-10.27,10.27-10.27s10.27,4.61,10.27,10.27
			C25.96,21.54,21.36,26.15,15.69,26.15 M15.69,5.9c-5.5,0-9.97,4.47-9.97,9.97c0,5.5,4.47,9.97,9.97,9.97
			c5.5,0,9.97-4.47,9.97-9.97C25.66,10.38,21.19,5.9,15.69,5.9"/>
		<g>
			<g>
				<polygon class="st1" points="13.55,9.26 15.67,7.15 17.78,9.27 14.9,12.16 14.36,11.63 16.7,9.27 15.67,8.21 14.64,9.27 
					15.47,10.11 14.94,10.66 13.55,9.26 				"/>
				<polygon class="st1" points="10.36,12.49 12.48,10.36 15.39,13.31 14.85,13.84 12.47,11.43 11.44,12.49 12.27,13.33 
					11.74,13.88 10.36,12.49 				"/>
				<polygon class="st1" points="18.91,10.36 21.03,12.49 18.1,15.41 17.57,14.87 19.97,12.48 18.91,11.44 18.07,12.28 17.53,11.74 
					18.91,10.36 				"/>
				<polygon class="st1" points="12.46,17.73 10.34,15.6 13.27,12.68 13.8,13.23 11.4,15.62 12.46,16.66 13.29,15.82 13.84,16.35 
					12.46,17.73 				"/>
				<polygon class="st1" points="20.98,15.62 18.86,17.75 15.95,14.8 16.49,14.27 18.87,16.68 19.9,15.62 19.07,14.78 19.6,14.23 
					20.98,15.62 				"/>
				<polygon class="st1" points="14.47,14.83 16.5,12.8 17.03,13.34 15.01,15.38 14.47,14.83 				"/>
				<polygon class="st1" points="17.99,13.68 15.97,11.64 16.51,11.11 18.54,13.14 17.99,13.68 				"/>
				<polygon class="st1" points="12.86,14.77 13.41,14.25 15.53,16.38 15.53,21.01 14.79,21.75 14.25,21.21 14.77,20.69 14.77,16.7 
					12.86,14.77 				"/>
				<polygon class="st1" points="16.53,15.84 17.06,16.38 16.63,16.82 16.63,20.75 18.93,23.04 19.97,21.98 18.93,20.95 
					18.18,21.72 17.63,21.18 18.93,19.88 21.05,22 18.93,24.12 15.88,21.07 15.88,16.5 16.53,15.84 				"/>
				<polygon class="st1" points="10.36,21.99 12.47,19.88 15.71,23.11 16.59,22.22 17.12,22.77 15.71,24.19 12.47,20.93 
					11.44,21.99 12.48,23.04 13.29,22.22 13.81,22.78 12.47,24.12 10.36,21.99 				"/>
			</g>
		</g>
	</g>
</g>
</svg>
