<svg xmlns="http://www.w3.org/2000/svg" xmlns:xlink="http://www.w3.org/1999/xlink" x="0px" y="0px" width="64px" height="64px" viewBox="0 0 64 64"><g stroke-width="3" transform="translate(0.5, 0.5)"><path d="M42.206,3.768a.2.2,0,0,0-.322.205A22.994,22.994,0,0,1,36.37,27.63a22.994,22.994,0,0,1,23.657-5.514.2.2,0,0,0,.2-.322Z" fill="none" stroke="#444444" stroke-linecap="square" stroke-miterlimit="10" stroke-width="3" stroke-linejoin="miter"></path><line x1="29.627" y1="51.343" x2="25.385" y2="47.101" fill="none" stroke="#444444" stroke-linecap="square" stroke-miterlimit="10" stroke-width="3" data-color="color-2" stroke-linejoin="miter"></line><line x1="33.87" y1="47.101" x2="29.627" y2="42.858" fill="none" stroke="#444444" stroke-linecap="square" stroke-miterlimit="10" stroke-width="3" data-color="color-2" stroke-linejoin="miter"></line><line x1="38.113" y1="42.858" x2="33.87" y2="38.615" fill="none" stroke="#444444" stroke-linecap="square" stroke-miterlimit="10" stroke-width="3" data-color="color-2" stroke-linejoin="miter"></line><line x1="21.142" y1="42.858" x2="18.314" y2="40.029" fill="none" stroke="#444444" stroke-linecap="square" stroke-miterlimit="10" stroke-width="3" data-color="color-2" stroke-linejoin="miter"></line><line x1="25.385" y1="38.615" x2="22.556" y2="35.787" fill="none" stroke="#444444" stroke-linecap="square" stroke-miterlimit="10" stroke-width="3" data-color="color-2" stroke-linejoin="miter"></line><line x1="29.627" y1="34.373" x2="26.799" y2="31.544" fill="none" stroke="#444444" stroke-linecap="square" stroke-miterlimit="10" stroke-width="3" data-color="color-2" stroke-linejoin="miter"></line><line x1="4.172" y1="54.172" x2="9.828" y2="59.828" fill="none" stroke="#444444" stroke-linecap="square" stroke-miterlimit="10" stroke-width="3" stroke-linejoin="miter"></line><line x1="11" y1="53" x2="36.37" y2="27.63" fill="none" stroke="#444444" stroke-linecap="square" stroke-miterlimit="10" stroke-width="3" stroke-linejoin="miter"></line><path d="M21.142,42.858A10,10,0,0,0,35.284,57l8.486-8.485a10,10,0,0,0-3.421-16.379" fill="none" stroke="#444444" stroke-linecap="square" stroke-miterlimit="10" stroke-width="3" stroke-linejoin="miter"></path></g></svg>