<svg width="500" height="500" viewBox="0 0 500 500" fill="none" xmlns="http://www.w3.org/2000/svg">
<path d="M114.5 474.5V318.983C114.5 255.917 165.625 204.792 228.691 204.792C245.615 204.792 261.68 208.474 276.127 215.081" stroke="#333333" stroke-width="19" stroke-miterlimit="10" stroke-linecap="round" stroke-linejoin="round"/>
<path d="M228.147 176.516C271.092 176.516 305.905 141.703 305.905 98.758C305.905 55.8134 271.092 21 228.147 21C185.203 21 150.389 55.8134 150.389 98.758C150.389 141.703 185.203 176.516 228.147 176.516Z" stroke="#333333" stroke-width="19" stroke-miterlimit="10" stroke-linecap="round" stroke-linejoin="round"/>
<path d="M328.174 336.576C352.931 336.576 373 316.507 373 291.75C373 266.993 352.931 246.924 328.174 246.924C303.417 246.924 283.348 266.993 283.348 291.75C283.348 316.507 303.417 336.576 328.174 336.576Z" stroke="#333333" stroke-width="15" stroke-miterlimit="10" stroke-linecap="round" stroke-linejoin="round"/>
<path d="M355.756 328.051L342.091 459.081C341.806 462.027 340.433 464.762 338.242 466.751C336.05 468.741 333.196 469.843 330.236 469.843H325.777C322.817 469.843 319.963 468.741 317.771 466.751C315.579 464.762 314.207 462.027 313.922 459.081L300.257 328.051M309 374H349M402 35L357 118M370.256 207.568L456.744 245.432M388 160L468 135" stroke="#333333" stroke-width="19" stroke-miterlimit="10" stroke-linecap="round" stroke-linejoin="round"/>
</svg>
