<svg xmlns="http://www.w3.org/2000/svg" xmlns:xlink="http://www.w3.org/1999/xlink" x="0px" y="0px" width="64px" height="64px" viewBox="0 0 64 64"><g stroke-width="3" transform="translate(0.5, 0.5)"><line x1="51.356" y1="34.572" x2="47.399" y2="33.986" fill="none" stroke="#444444" stroke-linecap="square" stroke-miterlimit="10" stroke-width="3" data-color="color-2" stroke-linejoin="miter"></line><path d="M34.667,50.053A6,6,0,0,1,43.061,51.3" fill="none" stroke="#444444" stroke-linecap="square" stroke-miterlimit="10" stroke-width="3" data-color="color-2" stroke-linejoin="miter"></path><path d="M24.418,51.986a17.989,17.989,0,0,0,33.388-6.351l3.1-20.917A35.815,35.815,0,0,0,45.564,17.6" fill="none" stroke="#444444" stroke-linecap="square" stroke-miterlimit="10" stroke-width="3" data-color="color-2" stroke-linejoin="miter"></path><path d="M6.194,31.635a18,18,0,1,0,35.612-5.27L38.711,5.448A35.793,35.793,0,0,0,3.1,10.718Z" fill="none" stroke="#444444" stroke-miterlimit="10" stroke-width="3" data-cap="butt" stroke-linecap="butt" stroke-linejoin="miter"></path><line x1="12.644" y1="20.572" x2="16.601" y2="19.986" fill="none" stroke="#444444" stroke-linecap="square" stroke-miterlimit="10" stroke-width="3" stroke-linejoin="miter"></line><line x1="28.471" y1="18.229" x2="32.428" y2="17.644" fill="none" stroke="#444444" stroke-linecap="square" stroke-miterlimit="10" stroke-width="3" stroke-linejoin="miter"></line><path d="M25.464,38.892a6,6,0,0,0,5.057-6.813L18.65,33.835A6,6,0,0,0,25.464,38.892Z" fill="none" stroke="#444444" stroke-linecap="square" stroke-miterlimit="10" stroke-width="3" stroke-linejoin="miter"></path></g></svg>