<?xml version="1.0" encoding="utf-8"?>
<!-- Generator: Adobe Illustrator 27.0.1, SVG Export Plug-In . SVG Version: 6.00 Build 0)  -->
<svg version="1.1" id="Layer_1" xmlns="http://www.w3.org/2000/svg" xmlns:xlink="http://www.w3.org/1999/xlink" x="0px" y="0px"
	 viewBox="0 0 30 28" style="enable-background:new 0 0 30 28;" xml:space="preserve">
<style type="text/css">
	.st0{fill-rule:evenodd;clip-rule:evenodd;fill:#444444;}
</style>
<path class="st0" d="M6,10.1c0,1.1,0.4,2.1,1.2,2.9c0.8,0.8,1.8,1.2,2.9,1.2c1.1,0,2.1-0.4,2.9-1.2c0.8-0.8,1.2-1.8,1.2-2.9
	C14.2,9,13.8,8,13,7.2C12.3,6.4,11.2,6,10.1,6C9,6,8,6.4,7.2,7.2C6.4,8,6,9,6,10.1L6,10.1z M10.1,12.8c-0.3,0-0.7-0.1-1-0.2
	c-0.3-0.1-0.6-0.3-0.9-0.6c-0.2-0.2-0.4-0.5-0.6-0.9c-0.1-0.3-0.2-0.7-0.2-1c0-0.3,0.1-0.7,0.2-1C7.8,8.8,8,8.5,8.3,8.3
	C8.5,8,8.8,7.8,9.1,7.7c0.3-0.1,0.7-0.2,1-0.2c0.7,0,1.4,0.3,1.9,0.8c0.5,0.5,0.8,1.2,0.8,1.9c0,0.7-0.3,1.4-0.8,1.9
	C11.5,12.5,10.8,12.8,10.1,12.8L10.1,12.8z M6,19.9C6,21,6.4,22,7.2,22.8C8,23.6,9,24,10.1,24c1.1,0,2.1-0.4,2.9-1.2
	c0.8-0.8,1.2-1.8,1.2-2.9S13.8,17.7,13,17c-0.8-0.8-1.8-1.2-2.9-1.2C9,15.8,8,16.2,7.2,17C6.4,17.7,6,18.8,6,19.9L6,19.9z
	 M10.1,22.5c-0.7,0-1.4-0.3-1.9-0.8c-0.5-0.5-0.8-1.2-0.8-1.9s0.3-1.4,0.8-1.9c0.5-0.5,1.2-0.8,1.9-0.8c0.7,0,1.4,0.3,1.9,0.8
	c0.5,0.5,0.8,1.2,0.8,1.9s-0.3,1.4-0.8,1.9C11.5,22.2,10.8,22.5,10.1,22.5L10.1,22.5z M19.9,24c-0.5,0-1.1-0.1-1.6-0.3
	c-0.5-0.2-1-0.5-1.3-0.9c-0.4-0.4-0.7-0.8-0.9-1.3c-0.2-0.5-0.3-1-0.3-1.6s0.1-1.1,0.3-1.6c0.2-0.5,0.5-1,0.9-1.3
	c0.4-0.4,0.8-0.7,1.3-0.9c0.5-0.2,1-0.3,1.6-0.3c1.1,0,2.1,0.4,2.9,1.2s1.2,1.8,1.2,2.9s-0.4,2.1-1.2,2.9S21,24,19.9,24L19.9,24z
	 M17.2,19.9c0,0.7,0.3,1.4,0.8,1.9c0.5,0.5,1.2,0.8,1.9,0.8s1.4-0.3,1.9-0.8c0.5-0.5,0.8-1.2,0.8-1.9s-0.3-1.4-0.8-1.9
	c-0.5-0.5-1.2-0.8-1.9-0.8S18.5,17.5,18,18C17.5,18.5,17.2,19.2,17.2,19.9L17.2,19.9z M15.8,10.1c0,0.5,0.1,1.1,0.3,1.6
	c0.2,0.5,0.5,1,0.9,1.3c0.4,0.4,0.8,0.7,1.3,0.9c0.5,0.2,1,0.3,1.6,0.3s1.1-0.1,1.6-0.3c0.5-0.2,1-0.5,1.3-0.9
	c0.4-0.4,0.7-0.8,0.9-1.3c0.2-0.5,0.3-1,0.3-1.6C24,9,23.6,8,22.8,7.2C22,6.4,21,6,19.9,6S17.7,6.4,17,7.2C16.2,8,15.8,9,15.8,10.1
	L15.8,10.1z M19.9,12.8c-0.3,0-0.7-0.1-1-0.2c-0.3-0.1-0.6-0.3-0.9-0.6c-0.2-0.2-0.4-0.5-0.6-0.9c-0.1-0.3-0.2-0.7-0.2-1
	c0-0.3,0.1-0.7,0.2-1c0.1-0.3,0.3-0.6,0.6-0.9c0.2-0.2,0.5-0.4,0.9-0.6c0.3-0.1,0.7-0.2,1-0.2c0.7,0,1.4,0.3,1.9,0.8
	c0.5,0.5,0.8,1.2,0.8,1.9c0,0.7-0.3,1.4-0.8,1.9C21.2,12.5,20.6,12.8,19.9,12.8L19.9,12.8z"/>
</svg>
