<?xml version="1.0" encoding="UTF-8"?>
<svg width="20px" height="20px" viewBox="0 0 20 20" version="1.1" xmlns="http://www.w3.org/2000/svg" xmlns:xlink="http://www.w3.org/1999/xlink">
    <!-- Generator: Sketch 52.4 (67378) - http://www.bohemiancoding.com/sketch -->
    <title>clear</title>
    <desc>Created with Sketch.</desc>
    <g id="Page-1" stroke="none" stroke-width="1" fill="none" fill-rule="evenodd">
        <g id="clear" fill="#FFFFFF">
            <path d="M16.2269012,19.3527118 L9.99999952,13.1256576 L3.77309787,19.3527118 C2.90989501,20.2157621 1.51049011,20.2157621 0.647287208,19.3527118 C-0.215763069,18.4895089 -0.215763069,17.090104 0.647287208,16.2269012 L6.87434148,9.99999952 L0.647287208,3.77309787 C-0.215763069,2.90989501 -0.215763069,1.51049011 0.647287208,0.647287208 C1.51049011,-0.215763069 2.90989501,-0.215763069 3.77309787,0.647287208 L9.99999952,6.87434148 L16.2269012,0.647287208 C17.090104,-0.215763069 18.4895089,-0.215763069 19.3527118,0.647287208 C20.2157621,1.51049011 20.2157621,2.90989501 19.3527118,3.77309787 L13.1256576,9.99999952 L19.3527118,16.2269012 C20.2157621,17.090104 20.2157621,18.4895089 19.3527118,19.3527118 C18.4895089,20.2157621 17.090104,20.2157621 16.2269012,19.3527118 Z" id="Path"></path>
        </g>
    </g>
</svg>