<svg width="20" height="20" viewBox="0 0 20 20" fill="none" xmlns="http://www.w3.org/2000/svg">
<g clip-path="url(#clip0_3250_1515)">
<path d="M0.183023 12.9419L1.85302 14.6116C1.97023 14.7288 2.12917 14.7946 2.2949 14.7946C2.46063 14.7946 2.61957 14.7288 2.73677 14.6116C2.91045 14.4369 3.11703 14.2985 3.34458 14.2042C3.57213 14.11 3.81611 14.0618 4.0624 14.0625C5.09646 14.0625 5.9374 14.9035 5.9374 15.9375C5.938 16.1839 5.88976 16.4279 5.79546 16.6555C5.70117 16.8831 5.56268 17.0897 5.38802 17.2635C5.27085 17.3807 5.20503 17.5396 5.20503 17.7053C5.20503 17.8711 5.27085 18.03 5.38802 18.1472L7.05802 19.8169C7.18021 19.9391 7.3399 20 7.4999 20C7.6599 20 7.8199 19.9391 7.94177 19.8169L19.8168 7.94189C19.8749 7.88394 19.9211 7.81508 19.9526 7.73925C19.9841 7.66342 20.0003 7.58213 20.0003 7.50002C20.0003 7.41791 19.9841 7.33661 19.9526 7.26079C19.9211 7.18496 19.8749 7.11609 19.8168 7.05814L18.1468 5.38846C18.0296 5.27129 17.8706 5.20546 17.7049 5.20546C17.5392 5.20546 17.3802 5.27129 17.263 5.38846C17.0894 5.56309 16.8828 5.70154 16.6552 5.79579C16.4277 5.89004 16.1837 5.93821 15.9374 5.93752C14.9033 5.93752 14.0624 5.09658 14.0624 4.06252C14.0624 3.56158 14.2577 3.09096 14.6118 2.73658C14.7289 2.61938 14.7948 2.46043 14.7948 2.29471C14.7948 2.12898 14.7289 1.97004 14.6118 1.85283L12.9418 0.183144C12.8246 0.0659747 12.6656 0.000152588 12.4999 0.000152588C12.3342 0.000152588 12.1752 0.0659747 12.058 0.183144L0.183023 12.0581C0.124857 12.1161 0.0787046 12.185 0.0472134 12.2608C0.0157222 12.3366 -0.000488281 12.4179 -0.000488281 12.5C-0.000488281 12.5821 0.0157222 12.6634 0.0472134 12.7393C0.0787046 12.8151 0.124857 12.8839 0.183023 12.9419ZM8.1249 5.88377L8.62052 6.37939C8.7424 6.50158 8.9024 6.56252 9.0624 6.56252C9.2224 6.56252 9.3824 6.50158 9.50427 6.37939C9.62144 6.26219 9.68726 6.10325 9.68726 5.93752C9.68726 5.77179 9.62144 5.61285 9.50427 5.49564L9.00865 5.00002L12.4999 1.50877L13.3299 2.33846C12.9909 2.84943 12.8109 3.44934 12.8124 4.06252C12.8124 5.78564 14.2143 7.18752 15.9374 7.18752C16.5505 7.18922 17.1503 7.00925 17.6611 6.67033L18.4908 7.50002L14.9999 10.9913L14.5043 10.4956C14.4466 10.4359 14.3777 10.3883 14.3014 10.3556C14.2251 10.3228 14.1431 10.3056 14.0602 10.3049C13.9772 10.3041 13.8949 10.32 13.8181 10.3514C13.7412 10.3828 13.6715 10.4292 13.6128 10.4879C13.5541 10.5466 13.5077 10.6164 13.4763 10.6932C13.4448 10.77 13.429 10.8523 13.4297 10.9353C13.4305 11.0183 13.4477 11.1003 13.4805 11.1765C13.5132 11.2528 13.5608 11.3217 13.6205 11.3794L14.1161 11.875L7.4999 18.4913L6.6699 17.6616C7.00887 17.1506 7.18894 16.5507 7.1874 15.9375C7.1874 14.2144 5.78552 12.8125 4.0624 12.8125C3.44934 12.8108 2.84951 12.9908 2.33865 13.3297L1.50896 12.5L8.1249 5.88377Z" fill="black"/>
<path d="M10.4957 8.25436C10.6176 8.37655 10.7776 8.43749 10.9376 8.43749C11.0976 8.43749 11.2576 8.37655 11.3795 8.25436C11.4967 8.13716 11.5625 7.97822 11.5625 7.81249C11.5625 7.64676 11.4967 7.48782 11.3795 7.37062L10.7545 6.74562C10.6968 6.68592 10.6279 6.63831 10.5516 6.60555C10.4754 6.5728 10.3933 6.55555 10.3104 6.55483C10.2274 6.55411 10.1451 6.56993 10.0683 6.60135C9.99146 6.63278 9.92167 6.67919 9.86299 6.73787C9.80431 6.79655 9.7579 6.86633 9.72647 6.94314C9.69505 7.01995 9.67923 7.10225 9.67996 7.18524C9.68068 7.26823 9.69792 7.35024 9.73067 7.42649C9.76343 7.50275 9.81104 7.57171 9.87074 7.62936L10.4957 8.25436ZM11.7457 9.50436L12.3707 10.1294C12.4926 10.2516 12.6526 10.3125 12.8126 10.3125C12.9726 10.3125 13.1326 10.2516 13.2545 10.1294C13.3717 10.0122 13.4375 9.85322 13.4375 9.68749C13.4375 9.52176 13.3717 9.36282 13.2545 9.24562L12.6295 8.62062C12.5718 8.56092 12.5029 8.51331 12.4266 8.48055C12.3504 8.4478 12.2683 8.43055 12.1854 8.42983C12.1024 8.42911 12.0201 8.44493 11.9433 8.47635C11.8665 8.50778 11.7967 8.55419 11.738 8.61287C11.6793 8.67155 11.6329 8.74133 11.6015 8.81814C11.57 8.89495 11.5542 8.97725 11.555 9.06024C11.5557 9.14323 11.5729 9.22524 11.6057 9.30149C11.6384 9.37775 11.686 9.44671 11.7457 9.50436Z" fill="black"/>
</g>
<defs>
<clipPath id="clip0_3250_1515">
<rect width="20" height="20" fill="white"/>
</clipPath>
</defs>
</svg>
