<svg width="18" height="18" viewBox="0 0 18 18" fill="none" xmlns="http://www.w3.org/2000/svg">
<path fill-rule="evenodd" clip-rule="evenodd" d="M15 3.75H14.122C13.8131 2.87611 12.9797 2.25 12 2.25C11.0203 2.25 10.1869 2.87611 9.87803 3.75H3C2.58579 3.75 2.25 4.08579 2.25 4.5C2.25 4.91421 2.58579 5.25 3 5.25H9.87803C10.1869 6.12389 11.0203 6.75 12 6.75C12.9797 6.75 13.8131 6.12389 14.122 5.25H15C15.4142 5.25 15.75 4.91421 15.75 4.5C15.75 4.08579 15.4142 3.75 15 3.75ZM12 5.25C12.4142 5.25 12.75 4.91421 12.75 4.5C12.75 4.08579 12.4142 3.75 12 3.75C11.5858 3.75 11.25 4.08579 11.25 4.5C11.25 4.91421 11.5858 5.25 12 5.25ZM2.25 9C2.25 8.58577 2.58579 8.25 3 8.25H3.87803C4.18691 7.37611 5.02033 6.75 6 6.75C6.97966 6.75 7.81313 7.37611 8.12197 8.25H15C15.4142 8.25 15.75 8.58577 15.75 9C15.75 9.41423 15.4142 9.75 15 9.75H8.12197C7.81313 10.6239 6.97966 11.25 6 11.25C5.02033 11.25 4.18691 10.6239 3.87803 9.75H3C2.58579 9.75 2.25 9.41423 2.25 9ZM6 9.75C6.41422 9.75 6.75 9.41423 6.75 9C6.75 8.58577 6.41422 8.25 6 8.25C5.58579 8.25 5.25 8.58577 5.25 9C5.25 9.41423 5.58579 9.75 6 9.75ZM3 12.75C2.58579 12.75 2.25 13.0858 2.25 13.5C2.25 13.9142 2.58579 14.25 3 14.25H9.87803C10.1869 15.1239 11.0203 15.75 12 15.75C12.9797 15.75 13.8131 15.1239 14.122 14.25H15C15.4142 14.25 15.75 13.9142 15.75 13.5C15.75 13.0858 15.4142 12.75 15 12.75H14.122C13.8131 11.8761 12.9797 11.25 12 11.25C11.0203 11.25 10.1869 11.8761 9.87803 12.75H3ZM12.75 13.5C12.75 13.9142 12.4142 14.25 12 14.25C11.5858 14.25 11.25 13.9142 11.25 13.5C11.25 13.0858 11.5858 12.75 12 12.75C12.4142 12.75 12.75 13.0858 12.75 13.5Z" fill="black"/>
</svg>
