<svg xmlns="http://www.w3.org/2000/svg" width="23" height="23" fill="#454545" fill-rule="nonzero"><path d="M15.813 0H7.188A7.19 7.19 0 0 0 0 7.188v8.625A7.19 7.19 0 0 0 7.188 23h8.625A7.19 7.19 0 0 0 23 15.813V7.188A7.19 7.19 0 0 0 15.813 0zm5.534 16.045a5.31 5.31 0 0 1-5.302 5.302h-9.1a5.31 5.31 0 0 1-5.302-5.302v-9.1a5.31 5.31 0 0 1 5.302-5.302h9.1a5.31 5.31 0 0 1 5.302 5.302v9.1zM11.5 5.75a5.75 5.75 0 1 0 0 11.5 5.75 5.75 0 1 0 0-11.5zm0 9.847c-2.258 0-4.097-1.84-4.097-4.097s1.84-4.097 4.097-4.097 4.097 1.837 4.097 4.097-1.84 4.097-4.097 4.097z"/><circle cx="17.538" cy="5.463" r="1"/></svg>