<svg width="16" height="16" viewBox="0 0 16 16" fill="none" xmlns="http://www.w3.org/2000/svg">
<path d="M7.99999 1.33334C6.58599 1.33493 5.23036 1.89734 4.23051 2.89719C3.23066 3.89704 2.66824 5.25268 2.66666 6.66668C2.66666 8.83668 4.24199 10.6387 5.91066 12.546C6.43866 13.15 6.98532 13.7747 7.47199 14.4067C7.53427 14.4875 7.61425 14.5529 7.70579 14.5979C7.79733 14.6429 7.89798 14.6663 7.99999 14.6663C8.102 14.6663 8.20264 14.6429 8.29418 14.5979C8.38572 14.5529 8.46571 14.4875 8.52799 14.4067C9.01465 13.7747 9.56132 13.15 10.0893 12.546C11.758 10.6387 13.3333 8.83668 13.3333 6.66668C13.3317 5.25268 12.7693 3.89704 11.7695 2.89719C10.7696 1.89734 9.41399 1.33493 7.99999 1.33334ZM7.99999 8.66668C7.60443 8.66668 7.21775 8.54938 6.88885 8.32962C6.55995 8.10985 6.30361 7.7975 6.15223 7.43204C6.00085 7.06659 5.96125 6.66446 6.03842 6.2765C6.11559 5.88853 6.30607 5.53217 6.58578 5.25246C6.86548 4.97276 7.22185 4.78228 7.60981 4.70511C7.99777 4.62794 8.3999 4.66754 8.76536 4.81892C9.13081 4.97029 9.44316 5.22664 9.66293 5.55554C9.88269 5.88443 9.99999 6.27111 9.99999 6.66668C9.99999 7.19711 9.78927 7.70582 9.4142 8.08089C9.03913 8.45596 8.53042 8.66668 7.99999 8.66668Z" fill="black"/>
</svg>
