<svg xmlns="http://www.w3.org/2000/svg" width="26" height="26" fill="#454545" fill-rule="nonzero"><path d="M13 0C5.82 0 0 5.82 0 13s5.82 13 13 13 13-5.82 13-13S20.18 0 13 0zm0 24.65a11.65 11.65 0 0 1 0-23.3 11.65 11.65 0 1 1 0 23.3zM7 19h2.44V9.247H7v9.742zm9.757-9.742c-2.088.035-3.116 1.555-3.252 1.624V9.247h-2.44v9.742h2.44v-5.683c0-.208.515-1.877 2.44-1.624 1.034.067 1.6 1.433 1.626 1.624v5.683L20 19v-6.744c-.086-.974-.573-2.974-3.243-3zM8.22 6A1.22 1.22 0 0 0 7 7.218a1.22 1.22 0 0 0 2.44 0A1.22 1.22 0 0 0 8.22 6z"/></svg>