<svg width="210" height="33" viewBox="0 0 210 33" fill="none" xmlns="http://www.w3.org/2000/svg">
<path fill-rule="evenodd" clip-rule="evenodd" d="M86.091 16.9471C85.6643 15.0942 84.4679 14.2098 82.9728 14.2098C81.4777 14.2098 80.4528 15.1363 79.7265 15.9365V25.8745C80.4963 26.5485 81.3915 27.2646 82.9292 27.2646C84.339 27.2646 85.2359 26.7168 85.7053 25.5816C86.2181 24.4018 86.3461 23.265 86.3461 20.6118C86.3461 18.6747 86.3043 17.8745 86.0901 16.9488L86.091 16.9471ZM88.7808 30.3831C87.2857 31.5628 85.7914 32.0661 83.9968 32.0661C81.8617 32.0661 80.3674 31.435 79.1275 30.0861C78.9568 30.8451 78.9141 31.0546 78.5301 31.6437H73.4048C73.8231 30.676 73.9595 30.0432 73.9595 27.0534V7.09252C73.9595 4.44015 73.8742 3.00877 73.5746 1.78777L79.4287 0.438898C79.5994 1.91317 79.642 2.7984 79.642 4.27102V9.36705C79.642 9.999 79.6002 10.9263 79.514 11.2621C80.6243 10.0823 82.162 9.53535 84.1692 9.53535C89.507 9.53535 92.8386 13.7461 92.8386 20.4847C92.8386 24.8655 91.4715 28.276 88.7808 30.3814" fill="black"/>
<path fill-rule="evenodd" clip-rule="evenodd" d="M94.3337 31.6445V10.461L100.056 9.57659V31.6437L94.3337 31.6445ZM97.195 7.63949C95.2732 7.63949 93.6928 6.08189 93.6928 4.14479C93.6928 2.20769 95.3159 0.649265 97.2804 0.649265C99.2022 0.649265 100.74 2.20851 100.74 4.14479C100.74 6.08106 99.1603 7.63949 97.195 7.63949Z" fill="black"/>
<path fill-rule="evenodd" clip-rule="evenodd" d="M107.76 32.1502C105.334 32.1502 103.361 31.0134 102.678 29.2025C102.252 28.1069 102.166 27.4337 102.166 24.3598V8.27227L101.867 1.78777L107.718 0.482618C107.932 1.66237 108.017 3.05167 108.017 6.08437V22.8855C108.017 26.5897 108.059 27.0971 108.402 27.687C108.615 28.0665 109.086 28.2769 109.557 28.2769C109.77 28.2769 109.898 28.2769 110.197 28.1927L111.179 31.5612C110.197 31.9407 109.001 32.1511 107.762 32.1511" fill="black"/>
<path fill-rule="evenodd" clip-rule="evenodd" d="M123.245 18.2531C123.245 16.6526 123.074 15.8111 122.562 15.0109C122.007 14.1694 121.195 13.7486 120.042 13.7486C117.864 13.7486 116.625 15.4316 116.625 18.4231V18.5072H123.245V18.2531ZM116.54 22.6339V22.8022C116.54 26.1286 118.205 28.0244 121.153 28.0244C123.117 28.0244 124.954 27.3083 126.705 25.8761L128.925 29.2454C126.405 31.2667 123.757 32.2352 120.682 32.2352C114.404 32.2352 110.347 27.8545 110.347 21.0754C110.347 17.2012 111.159 14.6404 113.081 12.5268C114.874 10.5468 117.052 9.62114 119.958 9.62114C122.478 9.62114 124.869 10.4626 126.279 11.8948C128.287 13.9161 129.182 16.8217 129.182 21.3287V22.6339H116.54Z" fill="black"/>
<path fill-rule="evenodd" clip-rule="evenodd" d="M138.266 32.1502C135.363 32.1502 133.056 30.888 132.372 28.9921C132.031 28.0657 131.987 27.6441 131.987 25.6649V13.9499H129.809V10.0757H131.987L132.201 4.97969L138.009 3.54749C137.795 5.52749 137.666 7.88452 137.666 10.0749H142.791L141.339 13.9491H137.657V24.7731C137.657 27.5104 138.17 28.2265 140.134 28.2265C140.646 28.2265 141.159 28.1003 142.184 27.8058L142.91 31.1751C141.245 31.8483 139.75 32.1436 138.255 32.1436" fill="black"/>
<path fill-rule="evenodd" clip-rule="evenodd" d="M144.227 31.6445V10.461L149.95 9.57659V31.6437L144.227 31.6445ZM147.089 7.63949C145.167 7.63949 143.587 6.08189 143.587 4.14479C143.587 2.20769 145.21 0.649265 147.174 0.649265C149.096 0.649265 150.634 2.20851 150.634 4.14479C150.634 6.08106 149.052 7.63949 147.089 7.63949Z" fill="black"/>
<path fill-rule="evenodd" clip-rule="evenodd" d="M164.556 31.6445V17.622C164.556 15.18 164.129 14.4622 162.634 14.4622C161.481 14.4622 159.987 15.2212 158.662 16.3993V31.6453H152.94V16.0215C152.94 14.1685 152.684 12.3915 152.17 10.9675L157.253 9.53534C157.765 10.4197 158.064 11.3462 158.064 12.2306L160.584 10.6301C161.739 10.0411 163.232 9.70364 164.513 9.70364C166.939 9.70364 169.083 10.9659 169.767 12.8205C170.066 13.6207 170.194 14.5472 170.194 15.8944V31.6437H164.557L164.556 31.6445Z" fill="black"/>
<path fill-rule="evenodd" clip-rule="evenodd" d="M172.104 31.6445V10.461L177.827 9.57659V31.6437L172.104 31.6445ZM174.965 7.63949C173.044 7.63949 171.463 6.08189 171.463 4.14479C171.463 2.20769 173.086 0.649265 175.05 0.649265C176.972 0.649265 178.509 2.20851 178.509 4.14479C178.509 6.08106 176.93 7.63949 174.964 7.63949H174.965Z" fill="black"/>
<path fill-rule="evenodd" clip-rule="evenodd" d="M191.22 22.2115C187.247 22.2115 185.882 22.9276 185.882 25.4966C185.882 27.1796 186.95 28.3181 188.402 28.3181C189.47 28.3181 190.537 27.7711 191.391 26.8438L191.477 22.2115H191.22ZM196.089 32.7385C194.766 32.1915 193.569 31.2229 193.014 30.1282C192.595 30.5489 192.117 30.9697 191.69 31.265C190.622 32.024 189.085 32.4448 187.291 32.4448C182.422 32.4448 179.774 30.0028 179.774 25.7062C179.774 20.6522 183.318 18.2944 190.279 18.2944C190.706 18.2944 191.091 18.2944 191.559 18.3356V17.4512C191.559 15.0587 191.091 14.2502 188.997 14.2502C187.16 14.2502 185.025 15.1346 182.676 16.6922L180.25 12.6497C181.403 11.9336 182.258 11.5129 183.794 10.8809C185.93 9.99652 187.766 9.61867 189.773 9.61867C193.455 9.61867 195.966 10.9667 196.82 13.3666C197.118 14.251 197.246 14.9259 197.204 17.2408L197.076 24.4843C197.035 26.8438 197.204 27.8536 199.126 29.2858L196.094 32.7393L196.089 32.7385Z" fill="black"/>
<path fill-rule="evenodd" clip-rule="evenodd" d="M205.978 32.1502C203.551 32.1502 201.578 31.0134 200.895 29.2025C200.477 28.1069 200.383 27.4337 200.383 24.3598V8.27227L200.084 1.78777L205.935 0.480969C206.148 1.66072 206.234 3.05002 206.234 6.08272V22.8863C206.234 26.5906 206.275 27.0979 206.618 27.6878C206.833 28.0673 207.302 28.2777 207.773 28.2777C207.986 28.2777 208.114 28.2777 208.413 28.1935L209.395 31.562C208.413 31.9415 207.217 32.1519 205.978 32.1519" fill="black"/>
<path fill-rule="evenodd" clip-rule="evenodd" d="M20.3474 16.5973C19.4329 15.8763 19.2849 14.5596 20.0153 13.6587C20.7457 12.7578 22.0818 12.6109 22.9954 13.3312C23.909 14.0514 24.058 15.3689 23.3267 16.2698C22.5955 17.1707 21.261 17.3176 20.3474 16.5973ZM16.7029 21.0911C15.7885 20.3701 15.6404 19.0534 16.3708 18.1525C17.1012 17.2516 18.4373 17.1047 19.351 17.8249C20.2646 18.5452 20.4135 19.8627 19.6831 20.7636C18.9527 21.6645 17.6166 21.8113 16.7029 21.0911ZM12.9045 25.7746C11.9901 25.0536 11.842 23.7369 12.5724 22.836C13.3028 21.9351 14.6389 21.7882 15.5526 22.5093C16.4662 23.2303 16.6151 24.547 15.8847 25.4479C15.1543 26.3488 13.8182 26.4957 12.9045 25.7755V25.7746ZM26.4767 12.3197C25.7187 12.9492 24.5918 12.988 23.7886 12.3527C22.9896 11.7232 22.7762 10.6392 23.2213 9.77459L16.242 4.31722C15.8738 4.02517 15.7249 4.04662 15.4555 4.38982L12.2904 8.31434C11.9809 8.68559 12.052 8.86214 12.385 9.15584C13.3624 10.0009 14.0023 11.1618 14.1896 12.4303C14.5762 14.9729 13.7161 17.0866 11.5057 18.4709C9.3153 19.8429 7.00781 19.8784 4.78733 18.4255C4.46606 18.2152 4.3188 18.2383 4.08873 18.5295L1.00398 22.3534C0.729562 22.6834 0.786454 22.8541 1.09936 23.0959L5.1404 26.2498C6.24813 27.0443 7.40522 27.6754 8.60916 28.1391C8.66697 27.7937 8.81262 27.4684 9.03251 27.1936C9.76375 26.2919 11.099 26.1459 12.0127 26.8661C12.682 27.3999 12.9447 28.2604 12.7355 29.0359C13.5847 29.0878 14.4532 29.0689 15.3459 28.9649L46.8994 25.2986" fill="black"/>
<path fill-rule="evenodd" clip-rule="evenodd" d="M52.7008 16.1485C52.3561 16.632 51.6801 16.7483 51.189 16.4084C50.9541 16.2448 50.7945 15.9961 50.7451 15.7167C50.6957 15.4373 50.7605 15.15 50.9254 14.9176C51.0914 14.686 51.3436 14.5287 51.6269 14.48C51.9103 14.4313 52.2016 14.4952 52.4373 14.6578C52.9275 14.9977 53.0455 15.6643 52.7008 16.1485ZM50.984 18.5559C50.6393 19.0393 49.9633 19.1557 49.4722 18.8158C48.981 18.4759 48.8639 17.8093 49.2086 17.325C49.3746 17.0934 49.6268 16.936 49.9101 16.8873C50.1934 16.8386 50.4848 16.9025 50.7204 17.0651C51.2107 17.405 51.3287 18.0716 50.984 18.5559ZM49.2672 20.9632C48.9225 21.4467 48.2465 21.563 47.7553 21.2231C47.2642 20.8832 47.1471 20.2166 47.4918 19.7323C47.6578 19.5007 47.91 19.3434 48.1933 19.2947C48.4766 19.246 48.768 19.3099 49.0036 19.4725C49.2385 19.6361 49.3981 19.8848 49.4475 20.1642C49.4969 20.4436 49.4321 20.7309 49.2672 20.9632ZM60.6959 16.486L58.3984 14.7658C57.2271 13.9557 55.952 13.4706 54.595 13.3303C54.5662 13.4779 54.5064 13.6179 54.4193 13.7412C54.0746 14.2246 53.3986 14.341 52.9075 14.0011C52.6849 13.8468 52.5435 13.6249 52.4833 13.3823L35.0223 15.7699L45.5859 22.6867C45.5973 22.4904 45.6636 22.3011 45.7775 22.1397C45.9435 21.9081 46.1957 21.7507 46.479 21.702C46.7623 21.6533 47.0537 21.7172 47.2893 21.8798C47.7796 22.2197 47.8976 22.8863 47.5529 23.3706C47.4441 23.5216 47.3036 23.6321 47.1463 23.7006L52.4406 27.1672C52.6498 27.3273 52.7334 27.3133 52.8807 27.1177L54.6075 24.882C54.7774 24.6716 54.7347 24.5726 54.5448 24.4117C53.9875 23.9495 53.6156 23.3066 53.4956 22.5984C53.2496 21.1794 53.7065 19.9848 54.9288 19.1845C56.1394 18.3925 57.4304 18.3455 58.6912 19.135C58.8736 19.2489 58.9565 19.234 59.0811 19.069L60.7603 16.8927C60.9109 16.7046 60.8757 16.6097 60.6984 16.4777" fill="black"/>
</svg>
