<svg width="32" height="14" viewBox="0 0 32 14" fill="none" xmlns="http://www.w3.org/2000/svg">
<path fill-rule="evenodd" clip-rule="evenodd" d="M10.3175 7.05309C9.83418 6.65979 9.7559 5.94159 10.142 5.45019C10.528 4.95879 11.2343 4.87869 11.7172 5.27154C12.2001 5.66439 12.2788 6.38304 11.8923 6.87444C11.5058 7.36584 10.8005 7.44594 10.3175 7.05309ZM8.39118 9.50424C7.90782 9.11094 7.82955 8.39274 8.21561 7.90134C8.60168 7.40994 9.30792 7.32984 9.79084 7.72269C10.2738 8.11554 10.3525 8.83419 9.96641 9.32559C9.58034 9.81699 8.8741 9.89709 8.39118 9.50424ZM6.38345 12.0589C5.90009 11.6656 5.82182 10.9474 6.20788 10.456C6.59395 9.96459 7.3002 9.88449 7.78311 10.2778C8.26603 10.6711 8.34474 11.3893 7.95868 11.8807C7.57261 12.3721 6.86637 12.4522 6.38345 12.0593V12.0589ZM13.5573 4.71984C13.1567 5.06319 12.561 5.08434 12.1364 4.73784C11.7141 4.39449 11.6013 3.80319 11.8366 3.33159L8.14751 0.354838C7.95293 0.195538 7.87421 0.207238 7.73181 0.394438L6.05885 2.53509C5.89523 2.73759 5.93282 2.83389 6.10883 2.99409C6.62548 3.455 6.96369 4.08827 7.06272 4.78014C7.26703 6.16704 6.81241 7.31994 5.64404 8.07504C4.48628 8.82339 3.26661 8.84274 2.09292 8.05029C1.92311 7.93554 1.84528 7.94814 1.72366 8.10699L0.0931557 10.1927C-0.0518961 10.3727 -0.0218244 10.4659 0.14357 10.5977L2.27955 12.3181C2.86506 12.7514 3.47667 13.0957 4.11304 13.3486C4.14359 13.1602 4.22058 12.9828 4.3368 12.8329C4.72331 12.341 5.42912 12.2614 5.91203 12.6542C6.26582 12.9454 6.40468 13.4147 6.29412 13.8377C6.74298 13.8661 7.20202 13.8557 7.67388 13.799L24.3522 11.7992" fill="black"/>
<path fill-rule="evenodd" clip-rule="evenodd" d="M27.4186 6.80828C27.2364 7.07198 26.8791 7.13543 26.6195 6.95003C26.4953 6.86077 26.411 6.72511 26.3849 6.57272C26.3588 6.42033 26.3931 6.26363 26.4802 6.13688C26.5679 6.01055 26.7012 5.92471 26.851 5.89815C27.0008 5.87158 27.1548 5.90645 27.2793 5.99513C27.5385 6.18053 27.6008 6.54413 27.4186 6.80828ZM26.5112 8.12138C26.329 8.38508 25.9716 8.44853 25.712 8.26313C25.4525 8.07773 25.3905 7.71413 25.5727 7.44999C25.6605 7.32365 25.7938 7.23781 25.9435 7.21125C26.0933 7.18468 26.2473 7.21955 26.3719 7.30823C26.631 7.49363 26.6934 7.85723 26.5112 8.12138ZM25.6037 9.43448C25.4215 9.69818 25.0642 9.76163 24.8046 9.57623C24.545 9.39083 24.4831 9.02723 24.6653 8.76308C24.753 8.63675 24.8863 8.55091 25.0361 8.52435C25.1858 8.49778 25.3398 8.53265 25.4644 8.62133C25.5885 8.7106 25.6729 8.84626 25.699 8.99865C25.7251 9.15104 25.6908 9.30774 25.6037 9.43448ZM31.6446 6.99233L30.4302 6.05408C29.8111 5.61218 29.1371 5.34758 28.4198 5.27108C28.4046 5.35158 28.373 5.42793 28.327 5.49518C28.1448 5.75888 27.7874 5.82233 27.5278 5.63693C27.4102 5.55278 27.3355 5.43173 27.3036 5.29943L18.0743 6.60173L23.6579 10.3745C23.6639 10.2675 23.699 10.1642 23.7592 10.0762C23.8469 9.94985 23.9802 9.86401 24.13 9.83745C24.2797 9.81088 24.4337 9.84575 24.5583 9.93443C24.8174 10.1198 24.8798 10.4834 24.6976 10.7476C24.6401 10.8299 24.5658 10.8902 24.4826 10.9276L27.2811 12.8185C27.3916 12.9058 27.4359 12.8981 27.5137 12.7915L28.4265 11.572C28.5162 11.4572 28.4937 11.4032 28.3933 11.3155C28.0987 11.0634 27.9021 10.7127 27.8387 10.3264C27.7087 9.55238 27.9502 8.90078 28.5963 8.46428C29.2362 8.03228 29.9185 8.00663 30.585 8.43728C30.6814 8.49938 30.7252 8.49128 30.7911 8.40128L31.6786 7.21418C31.7582 7.11158 31.7397 7.05983 31.6459 6.98783" fill="black"/>
</svg>
