<svg xmlns="http://www.w3.org/2000/svg" xmlns:xlink="http://www.w3.org/1999/xlink" width="250" height="40"><defs><path id="A" d="M.308.26h11.128v38.387H.308z"/><path id="B" d="M0 .408h55.065v30.243H0z"/></defs><g fill="none" fill-rule="evenodd"><path d="M112.2 38.357V12.68l6.84-1.072v26.748h-6.84zm3.42-29.097c-2.297 0-4.186-1.888-4.186-4.236s1.94-4.237 4.288-4.237c2.297 0 4.135 1.9 4.135 4.237S117.98 9.26 115.63 9.26zm12.628 29.7c-2.9 0-5.258-1.378-6.074-3.573-.5-1.328-.613-2.144-.613-5.87v-19.5l-.357-7.86 6.994-1.582c.255 1.43.357 3.114.357 6.8V27.74c0 4.5.05 5.105.46 5.82.255.46.817.715 1.38.715.255 0 .408 0 .765-.102l1.174 4.083c-1.174.46-2.603.715-4.084.715m18.506-16.846c0-1.94-.204-2.96-.816-3.93-.664-1.02-1.634-1.53-3.012-1.53-2.604 0-4.084 2.04-4.084 5.666v.102h7.912v-.306zm-8.014 5.3v.204c0 4.032 2 6.33 5.513 6.33 2.348 0 4.543-.868 6.636-2.604l2.654 4.084c-3.012 2.45-6.177 3.624-9.852 3.624-7.504 0-12.353-5.3-12.353-13.527 0-4.696.97-7.8 3.267-10.362 2.144-2.4 4.747-3.522 8.22-3.522 3.012 0 5.87 1.02 7.555 2.756 2.4 2.45 3.47 5.972 3.47 11.435v1.582h-15.1zM164.72 38.97c-3.47 0-6.228-1.53-7.045-3.828-.408-1.123-.46-1.634-.46-4.033v-14.2h-2.604v-4.696h2.604l.255-6.177 6.942-1.736c-.255 2.4-.4 5.257-.4 7.912h6.126l-1.736 4.696h-4.4v13.12c0 3.318.613 4.186 2.96 4.186.612 0 1.225-.153 2.45-.5l.868 4.084c-2 .816-3.777 1.174-5.564 1.174m7.14-.605V12.68l6.84-1.072v26.748h-6.84zm3.42-29.097c-2.297 0-4.186-1.888-4.186-4.236s1.94-4.237 4.288-4.237c2.297 0 4.135 1.9 4.135 4.237a4.23 4.23 0 0 1-4.237 4.236zm20.877 29.097V21.36c0-2.96-.5-3.83-2.297-3.83-1.378 0-3.164.92-4.747 2.348v18.48h-6.84V19.42c0-2.246-.306-4.4-.92-6.126l6.075-1.736c.612 1.072.97 2.195.97 3.267l3.012-1.94c1.38-.714 3.165-1.123 4.696-1.123 2.9 0 5.462 1.53 6.28 3.778.357.97.5 2.093.5 3.726v19.1h-6.738zm9.022 0V12.68l6.84-1.072v26.748h-6.84zm3.42-29.097c-2.297 0-4.186-1.888-4.186-4.236s1.94-4.237 4.287-4.237c2.297 0 4.135 1.9 4.135 4.237s-1.888 4.236-4.237 4.236zm19.428 17.663c-4.748 0-6.38.868-6.38 3.982 0 2.04 1.277 3.42 3.012 3.42 1.276 0 2.552-.663 3.573-1.787l.102-5.615h-.306zm5.82 12.76c-1.582-.663-3.012-1.837-3.676-3.164-.5.5-1.072 1.02-1.582 1.378-1.277.92-3.114 1.43-5.258 1.43-5.82 0-8.985-2.96-8.985-8.168 0-6.126 4.237-8.984 12.557-8.984.5 0 .97 0 1.53.05v-1.072c0-2.9-.56-3.88-3.063-3.88-2.195 0-4.747 1.072-7.555 2.96l-2.9-4.9c1.378-.868 2.4-1.378 4.237-2.144 2.552-1.072 4.747-1.53 7.146-1.53 4.4 0 7.402 1.634 8.422 4.543.357 1.072.5 1.9.46 4.696l-.153 8.78c-.05 2.86.153 4.084 2.45 5.82l-3.624 4.186z" fill="#484848"/><g transform="translate(238.298 .323)"><mask id="C" fill="#fff"><use xlink:href="#A"/></mask><path d="M7.353 38.647c-2.9 0-5.258-1.378-6.075-3.573-.5-1.328-.612-2.144-.612-5.87v-19.5l-.357-7.86L7.302.26c.255 1.43.357 3.114.357 6.79v20.368c0 4.49.05 5.105.46 5.82.256.46.817.715 1.38.715.255 0 .408 0 .765-.102l1.174 4.083c-1.174.46-2.603.715-4.084.715" fill="#484848" mask="url(#C)"/></g><path d="M102.358 20.542c-.51-2.246-1.94-3.318-3.727-3.318s-3.012 1.123-3.88 2.093v12.046c.92.817 1.99 1.685 3.828 1.685 1.685 0 2.757-.664 3.318-2.04.613-1.43.766-2.808.766-6.024 0-2.348-.05-3.318-.306-4.44m3.216 16.284c-1.787 1.43-3.573 2.04-5.718 2.04-2.552 0-4.338-.765-5.82-2.4-.204.92-.255 1.174-.714 1.888h-6.126c.5-1.173.663-1.94.663-5.564V8.597c0-3.215-.102-4.95-.46-6.43L94.395.532c.204 1.787.255 2.86.255 4.645v6.177c0 .766-.05 1.89-.153 2.297 1.327-1.43 3.165-2.093 5.564-2.093 6.38 0 10.362 5.104 10.362 13.272 0 5.31-1.634 9.444-4.85 11.996" fill="#484848"/><g transform="translate(0 4.578)"><mask id="D" fill="#fff"><use xlink:href="#B"/></mask><g fill="#484848"><path d="M23.32 15.54c-1.093-.874-1.27-2.47-.397-3.562s2.47-1.27 3.562-.397 1.27 2.47.396 3.562-2.47 1.27-3.562.397m-4.355 5.447c-1.093-.874-1.27-2.47-.397-3.562s2.47-1.27 3.562-.397 1.27 2.47.397 3.562-2.47 1.27-3.562.397m-4.54 5.677c-1.093-.874-1.27-2.47-.397-3.562s2.47-1.27 3.562-.396 1.27 2.47.397 3.562-2.47 1.27-3.562.397m16.222-16.31c-.906.763-2.253.81-3.213.04-.955-.763-1.21-2.077-.678-3.125L18.413.655c-.44-.354-.618-.328-.94.088L13.69 5.5c-.37.45-.285.664.113 1.02a6.53 6.53 0 0 1 2.157 3.969c.462 3.082-.566 5.644-3.208 7.322-2.618 1.663-5.376 1.706-8.03-.055-.384-.255-.56-.227-.835.126L.2 22.517c-.328.4-.26.607.114.9l4.83 3.823c1.324.963 2.707 1.728 4.146 2.29a2.51 2.51 0 0 1 .506-1.146c.874-1.093 2.47-1.27 3.562-.397.8.647 1.114 1.69.864 2.63 1.015.063 2.053.04 3.12-.086l37.714-4.444" mask="url(#D)"/><path d="M61.99 14.996c-.412.586-1.22.727-1.807.315a1.3 1.3 0 0 1-.315-1.807 1.3 1.3 0 0 1 1.807-.315c.586.412.727 1.22.315 1.807m-2.052 2.918c-.412.586-1.22.727-1.807.315s-.727-1.22-.315-1.807a1.3 1.3 0 0 1 1.807-.315c.586.412.727 1.22.315 1.807m-2.052 2.918c-.412.586-1.22.727-1.807.315s-.727-1.22-.315-1.807a1.3 1.3 0 0 1 1.807-.315 1.3 1.3 0 0 1 .315 1.807m13.66-5.427L68.8 13.32c-1.4-.982-2.924-1.57-4.546-1.74a1.3 1.3 0 0 1-.21.498c-.412.586-1.22.727-1.807.315-.266-.187-.435-.456-.507-.75l-20.87 2.894 12.626 8.384a1.29 1.29 0 0 1 .229-.663 1.3 1.3 0 0 1 1.807-.315c.586.412.727 1.22.315 1.807-.13.183-.298.317-.486.4l6.328 4.202c.25.194.35.177.526-.06l2.064-2.71c.203-.255.152-.375-.075-.57a3.66 3.66 0 0 1-1.254-2.198c-.294-1.72.252-3.168 1.713-4.138 1.447-.96 2.99-1.017 4.497-.06.218.138.317.12.466-.08l2.007-2.638c.18-.228.138-.343-.074-.503"/></g></g></g></svg>