<svg width="16" height="17" viewBox="0 0 16 17" fill="none" xmlns="http://www.w3.org/2000/svg">
<g clip-path="url(#clip0_0_263)">
<path fill-rule="evenodd" clip-rule="evenodd" d="M8.00002 0.850006L9.94429 5.49441C10.019 5.67279 10.1366 5.82711 10.2852 5.94189C10.4339 6.05666 10.6084 6.12777 10.7911 6.14812L15.5492 6.67757L11.9927 10.0775C11.8561 10.208 11.7543 10.3745 11.6975 10.5602C11.6408 10.7459 11.631 10.9442 11.6693 11.1352L12.6657 16.1068L8.52338 13.5636C8.36427 13.4659 8.18379 13.4145 8.00002 13.4145C7.81626 13.4145 7.63577 13.4659 7.47667 13.5636L3.33438 16.1068L4.33079 11.1352C4.36906 10.9442 4.35929 10.7459 4.30253 10.5602C4.24573 10.3745 4.14392 10.208 4.00732 10.0775L0.450867 6.67757L5.20894 6.14812C5.39168 6.12777 5.56616 6.05666 5.71483 5.94189C5.86349 5.82711 5.98107 5.67279 6.05576 5.49441L8.00002 0.850006Z" fill="#F4C01E"/>
</g>
<defs>
<clipPath id="clip0_0_263">
<rect width="16" height="17" fill="white"/>
</clipPath>
</defs>
</svg>
