<svg width="13" height="7" viewBox="0 0 13 7" fill="none" xmlns="http://www.w3.org/2000/svg">
<g clip-path="url(#clip0_1668_2183)">
<path d="M10.7196 0.622232L6.22245 5.11934L1.72534 0.622232C1.57865 0.480553 1.38218 0.402157 1.17825 0.40393C0.974315 0.405702 0.779239 0.4875 0.635032 0.631706C0.490826 0.775912 0.409028 0.970989 0.407256 1.17492C0.405484 1.37885 0.483879 1.57532 0.625558 1.72201L5.67023 6.76668C5.74257 6.83932 5.82866 6.89682 5.92348 6.93582C6.01829 6.97481 6.11993 6.99452 6.22245 6.99379C6.32493 6.9943 6.42651 6.9745 6.52129 6.93551C6.61608 6.89653 6.7022 6.83915 6.77467 6.76668L11.8193 1.72201C11.961 1.57532 12.0394 1.37885 12.0376 1.17492C12.0359 0.970989 11.9541 0.775912 11.8099 0.631706C11.6657 0.4875 11.4706 0.405702 11.2666 0.40393C11.0627 0.402157 10.8662 0.480553 10.7196 0.622232Z" fill="black"/>
</g>
<defs>
<clipPath id="clip0_1668_2183">
<rect width="12.4444" height="7" fill="white"/>
</clipPath>
</defs>
</svg>
