<svg xmlns="http://www.w3.org/2000/svg" width="27" height="20"><path d="M14.147 20c-3.07 0-6.413-.1-9.935-.297-2.08-.118-3.694-1.78-3.924-4.04-.384-3.776-.384-7.588 0-11.33C.517 2.093 2.13.432 4.208.297 10.28-.1 16.53-.1 22.79.297c2.103.132 3.678 1.753 3.92 4.035.383 3.613.384 7.424 0 11.33-.22 2.26-1.795 3.882-3.916 4.04-2.67.197-5.58.298-8.65.298zM13.43 1.073c-3.06 0-6.14.1-9.157.296-1.588.103-2.775 1.34-2.953 3.078-.376 3.667-.376 7.403 0 11.104.178 1.752 1.363 2.99 2.95 3.08 3.503.195 6.827.295 9.878.295 3.046 0 5.93-.1 8.576-.295 1.6-.12 2.79-1.356 2.958-3.077.376-3.83.376-7.567 0-11.104-.185-1.743-1.372-2.98-2.953-3.08-3.11-.196-6.238-.296-9.3-.296zm-2.57 5.123v7.37l6.835-3.66-6.835-3.71z" fill="#454545" fill-rule="nonzero"/></svg>